<?xml version="1.0" encoding="utf-8" standalone="no"?>
<!DOCTYPE svg PUBLIC "-//W3C//DTD SVG 1.1//EN"
  "http://www.w3.org/Graphics/SVG/1.1/DTD/svg11.dtd">
<!-- Created with matplotlib (http://matplotlib.org/) -->
<svg height="576pt" version="1.1" viewBox="0 0 1152 576" width="1152pt" xmlns="http://www.w3.org/2000/svg" xmlns:xlink="http://www.w3.org/1999/xlink">
 <defs>
  <style type="text/css">
*{stroke-linecap:butt;stroke-linejoin:round;}
  </style>
 </defs>
 <g id="figure_1">
  <g id="patch_1">
   <path d="M 0 576 
L 1152 576 
L 1152 0 
L 0 0 
z
" style="fill:#ffffff;"/>
  </g>
  <g id="axes_1">
   <g id="patch_2">
    <path d="M 144 504 
L 1036.8 504 
L 1036.8 69.12 
L 144 69.12 
z
" style="fill:#ffffff;"/>
   </g>
   <g id="matplotlib.axis_1">
    <g id="xtick_1">
     <g id="line2d_1">
      <defs>
       <path d="M 0 0 
L 0 3.5 
" id="m59d202b0fb" style="stroke:#000000;stroke-width:0.8;"/>
      </defs>
      <g>
       <use style="stroke:#000000;stroke-width:0.8;" x="144" xlink:href="#m59d202b0fb" y="504"/>
      </g>
     </g>
     <g id="text_1">
      <!-- 0 -->
      <defs>
       <path d="M 31.78125 66.40625 
Q 24.171875 66.40625 20.328125 58.90625 
Q 16.5 51.421875 16.5 36.375 
Q 16.5 21.390625 20.328125 13.890625 
Q 24.171875 6.390625 31.78125 6.390625 
Q 39.453125 6.390625 43.28125 13.890625 
Q 47.125 21.390625 47.125 36.375 
Q 47.125 51.421875 43.28125 58.90625 
Q 39.453125 66.40625 31.78125 66.40625 
z
M 31.78125 74.21875 
Q 44.046875 74.21875 50.515625 64.515625 
Q 56.984375 54.828125 56.984375 36.375 
Q 56.984375 17.96875 50.515625 8.265625 
Q 44.046875 -1.421875 31.78125 -1.421875 
Q 19.53125 -1.421875 13.0625 8.265625 
Q 6.59375 17.96875 6.59375 36.375 
Q 6.59375 54.828125 13.0625 64.515625 
Q 19.53125 74.21875 31.78125 74.21875 
z
" id="DejaVuSans-30"/>
      </defs>
      <g transform="translate(140.81875 518.598438)scale(0.1 -0.1)">
       <use xlink:href="#DejaVuSans-30"/>
      </g>
     </g>
    </g>
    <g id="xtick_2">
     <g id="line2d_2">
      <g>
       <use style="stroke:#000000;stroke-width:0.8;" x="322.56" xlink:href="#m59d202b0fb" y="504"/>
      </g>
     </g>
     <g id="text_2">
      <!-- 500 -->
      <defs>
       <path d="M 10.796875 72.90625 
L 49.515625 72.90625 
L 49.515625 64.59375 
L 19.828125 64.59375 
L 19.828125 46.734375 
Q 21.96875 47.46875 24.109375 47.828125 
Q 26.265625 48.1875 28.421875 48.1875 
Q 40.625 48.1875 47.75 41.5 
Q 54.890625 34.8125 54.890625 23.390625 
Q 54.890625 11.625 47.5625 5.09375 
Q 40.234375 -1.421875 26.90625 -1.421875 
Q 22.3125 -1.421875 17.546875 -0.640625 
Q 12.796875 0.140625 7.71875 1.703125 
L 7.71875 11.625 
Q 12.109375 9.234375 16.796875 8.0625 
Q 21.484375 6.890625 26.703125 6.890625 
Q 35.15625 6.890625 40.078125 11.328125 
Q 45.015625 15.765625 45.015625 23.390625 
Q 45.015625 31 40.078125 35.4375 
Q 35.15625 39.890625 26.703125 39.890625 
Q 22.75 39.890625 18.8125 39.015625 
Q 14.890625 38.140625 10.796875 36.28125 
z
" id="DejaVuSans-35"/>
      </defs>
      <g transform="translate(313.01625 518.598438)scale(0.1 -0.1)">
       <use xlink:href="#DejaVuSans-35"/>
       <use x="63.623047" xlink:href="#DejaVuSans-30"/>
       <use x="127.246094" xlink:href="#DejaVuSans-30"/>
      </g>
     </g>
    </g>
    <g id="xtick_3">
     <g id="line2d_3">
      <g>
       <use style="stroke:#000000;stroke-width:0.8;" x="501.12" xlink:href="#m59d202b0fb" y="504"/>
      </g>
     </g>
     <g id="text_3">
      <!-- 1000 -->
      <defs>
       <path d="M 12.40625 8.296875 
L 28.515625 8.296875 
L 28.515625 63.921875 
L 10.984375 60.40625 
L 10.984375 69.390625 
L 28.421875 72.90625 
L 38.28125 72.90625 
L 38.28125 8.296875 
L 54.390625 8.296875 
L 54.390625 0 
L 12.40625 0 
z
" id="DejaVuSans-31"/>
      </defs>
      <g transform="translate(488.395 518.598438)scale(0.1 -0.1)">
       <use xlink:href="#DejaVuSans-31"/>
       <use x="63.623047" xlink:href="#DejaVuSans-30"/>
       <use x="127.246094" xlink:href="#DejaVuSans-30"/>
       <use x="190.869141" xlink:href="#DejaVuSans-30"/>
      </g>
     </g>
    </g>
    <g id="xtick_4">
     <g id="line2d_4">
      <g>
       <use style="stroke:#000000;stroke-width:0.8;" x="679.68" xlink:href="#m59d202b0fb" y="504"/>
      </g>
     </g>
     <g id="text_4">
      <!-- 1500 -->
      <g transform="translate(666.955 518.598438)scale(0.1 -0.1)">
       <use xlink:href="#DejaVuSans-31"/>
       <use x="63.623047" xlink:href="#DejaVuSans-35"/>
       <use x="127.246094" xlink:href="#DejaVuSans-30"/>
       <use x="190.869141" xlink:href="#DejaVuSans-30"/>
      </g>
     </g>
    </g>
    <g id="xtick_5">
     <g id="line2d_5">
      <g>
       <use style="stroke:#000000;stroke-width:0.8;" x="858.24" xlink:href="#m59d202b0fb" y="504"/>
      </g>
     </g>
     <g id="text_5">
      <!-- 2000 -->
      <defs>
       <path d="M 19.1875 8.296875 
L 53.609375 8.296875 
L 53.609375 0 
L 7.328125 0 
L 7.328125 8.296875 
Q 12.9375 14.109375 22.625 23.890625 
Q 32.328125 33.6875 34.8125 36.53125 
Q 39.546875 41.84375 41.421875 45.53125 
Q 43.3125 49.21875 43.3125 52.78125 
Q 43.3125 58.59375 39.234375 62.25 
Q 35.15625 65.921875 28.609375 65.921875 
Q 23.96875 65.921875 18.8125 64.3125 
Q 13.671875 62.703125 7.8125 59.421875 
L 7.8125 69.390625 
Q 13.765625 71.78125 18.9375 73 
Q 24.125 74.21875 28.421875 74.21875 
Q 39.75 74.21875 46.484375 68.546875 
Q 53.21875 62.890625 53.21875 53.421875 
Q 53.21875 48.921875 51.53125 44.890625 
Q 49.859375 40.875 45.40625 35.40625 
Q 44.1875 33.984375 37.640625 27.21875 
Q 31.109375 20.453125 19.1875 8.296875 
z
" id="DejaVuSans-32"/>
      </defs>
      <g transform="translate(845.515 518.598438)scale(0.1 -0.1)">
       <use xlink:href="#DejaVuSans-32"/>
       <use x="63.623047" xlink:href="#DejaVuSans-30"/>
       <use x="127.246094" xlink:href="#DejaVuSans-30"/>
       <use x="190.869141" xlink:href="#DejaVuSans-30"/>
      </g>
     </g>
    </g>
    <g id="xtick_6">
     <g id="line2d_6">
      <g>
       <use style="stroke:#000000;stroke-width:0.8;" x="1036.8" xlink:href="#m59d202b0fb" y="504"/>
      </g>
     </g>
     <g id="text_6">
      <!-- 2500 -->
      <g transform="translate(1024.075 518.598438)scale(0.1 -0.1)">
       <use xlink:href="#DejaVuSans-32"/>
       <use x="63.623047" xlink:href="#DejaVuSans-35"/>
       <use x="127.246094" xlink:href="#DejaVuSans-30"/>
       <use x="190.869141" xlink:href="#DejaVuSans-30"/>
      </g>
     </g>
    </g>
    <g id="text_7">
     <!-- generation -->
     <defs>
      <path d="M 45.40625 27.984375 
Q 45.40625 37.75 41.375 43.109375 
Q 37.359375 48.484375 30.078125 48.484375 
Q 22.859375 48.484375 18.828125 43.109375 
Q 14.796875 37.75 14.796875 27.984375 
Q 14.796875 18.265625 18.828125 12.890625 
Q 22.859375 7.515625 30.078125 7.515625 
Q 37.359375 7.515625 41.375 12.890625 
Q 45.40625 18.265625 45.40625 27.984375 
z
M 54.390625 6.78125 
Q 54.390625 -7.171875 48.1875 -13.984375 
Q 42 -20.796875 29.203125 -20.796875 
Q 24.46875 -20.796875 20.265625 -20.09375 
Q 16.0625 -19.390625 12.109375 -17.921875 
L 12.109375 -9.1875 
Q 16.0625 -11.328125 19.921875 -12.34375 
Q 23.78125 -13.375 27.78125 -13.375 
Q 36.625 -13.375 41.015625 -8.765625 
Q 45.40625 -4.15625 45.40625 5.171875 
L 45.40625 9.625 
Q 42.625 4.78125 38.28125 2.390625 
Q 33.9375 0 27.875 0 
Q 17.828125 0 11.671875 7.65625 
Q 5.515625 15.328125 5.515625 27.984375 
Q 5.515625 40.671875 11.671875 48.328125 
Q 17.828125 56 27.875 56 
Q 33.9375 56 38.28125 53.609375 
Q 42.625 51.21875 45.40625 46.390625 
L 45.40625 54.6875 
L 54.390625 54.6875 
z
" id="DejaVuSans-67"/>
      <path d="M 56.203125 29.59375 
L 56.203125 25.203125 
L 14.890625 25.203125 
Q 15.484375 15.921875 20.484375 11.0625 
Q 25.484375 6.203125 34.421875 6.203125 
Q 39.59375 6.203125 44.453125 7.46875 
Q 49.3125 8.734375 54.109375 11.28125 
L 54.109375 2.78125 
Q 49.265625 0.734375 44.1875 -0.34375 
Q 39.109375 -1.421875 33.890625 -1.421875 
Q 20.796875 -1.421875 13.15625 6.1875 
Q 5.515625 13.8125 5.515625 26.8125 
Q 5.515625 40.234375 12.765625 48.109375 
Q 20.015625 56 32.328125 56 
Q 43.359375 56 49.78125 48.890625 
Q 56.203125 41.796875 56.203125 29.59375 
z
M 47.21875 32.234375 
Q 47.125 39.59375 43.09375 43.984375 
Q 39.0625 48.390625 32.421875 48.390625 
Q 24.90625 48.390625 20.390625 44.140625 
Q 15.875 39.890625 15.1875 32.171875 
z
" id="DejaVuSans-65"/>
      <path d="M 54.890625 33.015625 
L 54.890625 0 
L 45.90625 0 
L 45.90625 32.71875 
Q 45.90625 40.484375 42.875 44.328125 
Q 39.84375 48.1875 33.796875 48.1875 
Q 26.515625 48.1875 22.3125 43.546875 
Q 18.109375 38.921875 18.109375 30.90625 
L 18.109375 0 
L 9.078125 0 
L 9.078125 54.6875 
L 18.109375 54.6875 
L 18.109375 46.1875 
Q 21.34375 51.125 25.703125 53.5625 
Q 30.078125 56 35.796875 56 
Q 45.21875 56 50.046875 50.171875 
Q 54.890625 44.34375 54.890625 33.015625 
z
" id="DejaVuSans-6e"/>
      <path d="M 41.109375 46.296875 
Q 39.59375 47.171875 37.8125 47.578125 
Q 36.03125 48 33.890625 48 
Q 26.265625 48 22.1875 43.046875 
Q 18.109375 38.09375 18.109375 28.8125 
L 18.109375 0 
L 9.078125 0 
L 9.078125 54.6875 
L 18.109375 54.6875 
L 18.109375 46.1875 
Q 20.953125 51.171875 25.484375 53.578125 
Q 30.03125 56 36.53125 56 
Q 37.453125 56 38.578125 55.875 
Q 39.703125 55.765625 41.0625 55.515625 
z
" id="DejaVuSans-72"/>
      <path d="M 34.28125 27.484375 
Q 23.390625 27.484375 19.1875 25 
Q 14.984375 22.515625 14.984375 16.5 
Q 14.984375 11.71875 18.140625 8.90625 
Q 21.296875 6.109375 26.703125 6.109375 
Q 34.1875 6.109375 38.703125 11.40625 
Q 43.21875 16.703125 43.21875 25.484375 
L 43.21875 27.484375 
z
M 52.203125 31.203125 
L 52.203125 0 
L 43.21875 0 
L 43.21875 8.296875 
Q 40.140625 3.328125 35.546875 0.953125 
Q 30.953125 -1.421875 24.3125 -1.421875 
Q 15.921875 -1.421875 10.953125 3.296875 
Q 6 8.015625 6 15.921875 
Q 6 25.140625 12.171875 29.828125 
Q 18.359375 34.515625 30.609375 34.515625 
L 43.21875 34.515625 
L 43.21875 35.40625 
Q 43.21875 41.609375 39.140625 45 
Q 35.0625 48.390625 27.6875 48.390625 
Q 23 48.390625 18.546875 47.265625 
Q 14.109375 46.140625 10.015625 43.890625 
L 10.015625 52.203125 
Q 14.9375 54.109375 19.578125 55.046875 
Q 24.21875 56 28.609375 56 
Q 40.484375 56 46.34375 49.84375 
Q 52.203125 43.703125 52.203125 31.203125 
z
" id="DejaVuSans-61"/>
      <path d="M 18.3125 70.21875 
L 18.3125 54.6875 
L 36.8125 54.6875 
L 36.8125 47.703125 
L 18.3125 47.703125 
L 18.3125 18.015625 
Q 18.3125 11.328125 20.140625 9.421875 
Q 21.96875 7.515625 27.59375 7.515625 
L 36.8125 7.515625 
L 36.8125 0 
L 27.59375 0 
Q 17.1875 0 13.234375 3.875 
Q 9.28125 7.765625 9.28125 18.015625 
L 9.28125 47.703125 
L 2.6875 47.703125 
L 2.6875 54.6875 
L 9.28125 54.6875 
L 9.28125 70.21875 
z
" id="DejaVuSans-74"/>
      <path d="M 9.421875 54.6875 
L 18.40625 54.6875 
L 18.40625 0 
L 9.421875 0 
z
M 9.421875 75.984375 
L 18.40625 75.984375 
L 18.40625 64.59375 
L 9.421875 64.59375 
z
" id="DejaVuSans-69"/>
      <path d="M 30.609375 48.390625 
Q 23.390625 48.390625 19.1875 42.75 
Q 14.984375 37.109375 14.984375 27.296875 
Q 14.984375 17.484375 19.15625 11.84375 
Q 23.34375 6.203125 30.609375 6.203125 
Q 37.796875 6.203125 41.984375 11.859375 
Q 46.1875 17.53125 46.1875 27.296875 
Q 46.1875 37.015625 41.984375 42.703125 
Q 37.796875 48.390625 30.609375 48.390625 
z
M 30.609375 56 
Q 42.328125 56 49.015625 48.375 
Q 55.71875 40.765625 55.71875 27.296875 
Q 55.71875 13.875 49.015625 6.21875 
Q 42.328125 -1.421875 30.609375 -1.421875 
Q 18.84375 -1.421875 12.171875 6.21875 
Q 5.515625 13.875 5.515625 27.296875 
Q 5.515625 40.765625 12.171875 48.375 
Q 18.84375 56 30.609375 56 
z
" id="DejaVuSans-6f"/>
     </defs>
     <g transform="translate(563.207031 532.276562)scale(0.1 -0.1)">
      <use xlink:href="#DejaVuSans-67"/>
      <use x="63.476562" xlink:href="#DejaVuSans-65"/>
      <use x="125" xlink:href="#DejaVuSans-6e"/>
      <use x="188.378906" xlink:href="#DejaVuSans-65"/>
      <use x="249.902344" xlink:href="#DejaVuSans-72"/>
      <use x="291.015625" xlink:href="#DejaVuSans-61"/>
      <use x="352.294922" xlink:href="#DejaVuSans-74"/>
      <use x="391.503906" xlink:href="#DejaVuSans-69"/>
      <use x="419.287109" xlink:href="#DejaVuSans-6f"/>
      <use x="480.46875" xlink:href="#DejaVuSans-6e"/>
     </g>
    </g>
   </g>
   <g id="matplotlib.axis_2">
    <g id="ytick_1">
     <g id="line2d_7">
      <defs>
       <path d="M 0 0 
L -3.5 0 
" id="mf1b8c030fc" style="stroke:#000000;stroke-width:0.8;"/>
      </defs>
      <g>
       <use style="stroke:#000000;stroke-width:0.8;" x="144" xlink:href="#mf1b8c030fc" y="456.940457"/>
      </g>
     </g>
     <g id="text_8">
      <!-- −10000 -->
      <defs>
       <path d="M 10.59375 35.5 
L 73.1875 35.5 
L 73.1875 27.203125 
L 10.59375 27.203125 
z
" id="DejaVuSans-2212"/>
      </defs>
      <g transform="translate(96.807812 460.739676)scale(0.1 -0.1)">
       <use xlink:href="#DejaVuSans-2212"/>
       <use x="83.789062" xlink:href="#DejaVuSans-31"/>
       <use x="147.412109" xlink:href="#DejaVuSans-30"/>
       <use x="211.035156" xlink:href="#DejaVuSans-30"/>
       <use x="274.658203" xlink:href="#DejaVuSans-30"/>
       <use x="338.28125" xlink:href="#DejaVuSans-30"/>
      </g>
     </g>
    </g>
    <g id="ytick_2">
     <g id="line2d_8">
      <g>
       <use style="stroke:#000000;stroke-width:0.8;" x="144" xlink:href="#mf1b8c030fc" y="383.32982"/>
      </g>
     </g>
     <g id="text_9">
      <!-- −8000 -->
      <defs>
       <path d="M 31.78125 34.625 
Q 24.75 34.625 20.71875 30.859375 
Q 16.703125 27.09375 16.703125 20.515625 
Q 16.703125 13.921875 20.71875 10.15625 
Q 24.75 6.390625 31.78125 6.390625 
Q 38.8125 6.390625 42.859375 10.171875 
Q 46.921875 13.96875 46.921875 20.515625 
Q 46.921875 27.09375 42.890625 30.859375 
Q 38.875 34.625 31.78125 34.625 
z
M 21.921875 38.8125 
Q 15.578125 40.375 12.03125 44.71875 
Q 8.5 49.078125 8.5 55.328125 
Q 8.5 64.0625 14.71875 69.140625 
Q 20.953125 74.21875 31.78125 74.21875 
Q 42.671875 74.21875 48.875 69.140625 
Q 55.078125 64.0625 55.078125 55.328125 
Q 55.078125 49.078125 51.53125 44.71875 
Q 48 40.375 41.703125 38.8125 
Q 48.828125 37.15625 52.796875 32.3125 
Q 56.78125 27.484375 56.78125 20.515625 
Q 56.78125 9.90625 50.3125 4.234375 
Q 43.84375 -1.421875 31.78125 -1.421875 
Q 19.734375 -1.421875 13.25 4.234375 
Q 6.78125 9.90625 6.78125 20.515625 
Q 6.78125 27.484375 10.78125 32.3125 
Q 14.796875 37.15625 21.921875 38.8125 
z
M 18.3125 54.390625 
Q 18.3125 48.734375 21.84375 45.5625 
Q 25.390625 42.390625 31.78125 42.390625 
Q 38.140625 42.390625 41.71875 45.5625 
Q 45.3125 48.734375 45.3125 54.390625 
Q 45.3125 60.0625 41.71875 63.234375 
Q 38.140625 66.40625 31.78125 66.40625 
Q 25.390625 66.40625 21.84375 63.234375 
Q 18.3125 60.0625 18.3125 54.390625 
z
" id="DejaVuSans-38"/>
      </defs>
      <g transform="translate(103.170312 387.129039)scale(0.1 -0.1)">
       <use xlink:href="#DejaVuSans-2212"/>
       <use x="83.789062" xlink:href="#DejaVuSans-38"/>
       <use x="147.412109" xlink:href="#DejaVuSans-30"/>
       <use x="211.035156" xlink:href="#DejaVuSans-30"/>
       <use x="274.658203" xlink:href="#DejaVuSans-30"/>
      </g>
     </g>
    </g>
    <g id="ytick_3">
     <g id="line2d_9">
      <g>
       <use style="stroke:#000000;stroke-width:0.8;" x="144" xlink:href="#mf1b8c030fc" y="309.719183"/>
      </g>
     </g>
     <g id="text_10">
      <!-- −6000 -->
      <defs>
       <path d="M 33.015625 40.375 
Q 26.375 40.375 22.484375 35.828125 
Q 18.609375 31.296875 18.609375 23.390625 
Q 18.609375 15.53125 22.484375 10.953125 
Q 26.375 6.390625 33.015625 6.390625 
Q 39.65625 6.390625 43.53125 10.953125 
Q 47.40625 15.53125 47.40625 23.390625 
Q 47.40625 31.296875 43.53125 35.828125 
Q 39.65625 40.375 33.015625 40.375 
z
M 52.59375 71.296875 
L 52.59375 62.3125 
Q 48.875 64.0625 45.09375 64.984375 
Q 41.3125 65.921875 37.59375 65.921875 
Q 27.828125 65.921875 22.671875 59.328125 
Q 17.53125 52.734375 16.796875 39.40625 
Q 19.671875 43.65625 24.015625 45.921875 
Q 28.375 48.1875 33.59375 48.1875 
Q 44.578125 48.1875 50.953125 41.515625 
Q 57.328125 34.859375 57.328125 23.390625 
Q 57.328125 12.15625 50.6875 5.359375 
Q 44.046875 -1.421875 33.015625 -1.421875 
Q 20.359375 -1.421875 13.671875 8.265625 
Q 6.984375 17.96875 6.984375 36.375 
Q 6.984375 53.65625 15.1875 63.9375 
Q 23.390625 74.21875 37.203125 74.21875 
Q 40.921875 74.21875 44.703125 73.484375 
Q 48.484375 72.75 52.59375 71.296875 
z
" id="DejaVuSans-36"/>
      </defs>
      <g transform="translate(103.170312 313.518402)scale(0.1 -0.1)">
       <use xlink:href="#DejaVuSans-2212"/>
       <use x="83.789062" xlink:href="#DejaVuSans-36"/>
       <use x="147.412109" xlink:href="#DejaVuSans-30"/>
       <use x="211.035156" xlink:href="#DejaVuSans-30"/>
       <use x="274.658203" xlink:href="#DejaVuSans-30"/>
      </g>
     </g>
    </g>
    <g id="ytick_4">
     <g id="line2d_10">
      <g>
       <use style="stroke:#000000;stroke-width:0.8;" x="144" xlink:href="#mf1b8c030fc" y="236.108547"/>
      </g>
     </g>
     <g id="text_11">
      <!-- −4000 -->
      <defs>
       <path d="M 37.796875 64.3125 
L 12.890625 25.390625 
L 37.796875 25.390625 
z
M 35.203125 72.90625 
L 47.609375 72.90625 
L 47.609375 25.390625 
L 58.015625 25.390625 
L 58.015625 17.1875 
L 47.609375 17.1875 
L 47.609375 0 
L 37.796875 0 
L 37.796875 17.1875 
L 4.890625 17.1875 
L 4.890625 26.703125 
z
" id="DejaVuSans-34"/>
      </defs>
      <g transform="translate(103.170312 239.907765)scale(0.1 -0.1)">
       <use xlink:href="#DejaVuSans-2212"/>
       <use x="83.789062" xlink:href="#DejaVuSans-34"/>
       <use x="147.412109" xlink:href="#DejaVuSans-30"/>
       <use x="211.035156" xlink:href="#DejaVuSans-30"/>
       <use x="274.658203" xlink:href="#DejaVuSans-30"/>
      </g>
     </g>
    </g>
    <g id="ytick_5">
     <g id="line2d_11">
      <g>
       <use style="stroke:#000000;stroke-width:0.8;" x="144" xlink:href="#mf1b8c030fc" y="162.49791"/>
      </g>
     </g>
     <g id="text_12">
      <!-- −2000 -->
      <g transform="translate(103.170312 166.297128)scale(0.1 -0.1)">
       <use xlink:href="#DejaVuSans-2212"/>
       <use x="83.789062" xlink:href="#DejaVuSans-32"/>
       <use x="147.412109" xlink:href="#DejaVuSans-30"/>
       <use x="211.035156" xlink:href="#DejaVuSans-30"/>
       <use x="274.658203" xlink:href="#DejaVuSans-30"/>
      </g>
     </g>
    </g>
    <g id="ytick_6">
     <g id="line2d_12">
      <g>
       <use style="stroke:#000000;stroke-width:0.8;" x="144" xlink:href="#mf1b8c030fc" y="88.887273"/>
      </g>
     </g>
     <g id="text_13">
      <!-- 0 -->
      <g transform="translate(130.6375 92.686491)scale(0.1 -0.1)">
       <use xlink:href="#DejaVuSans-30"/>
      </g>
     </g>
    </g>
    <g id="text_14">
     <!-- fitness -->
     <defs>
      <path d="M 37.109375 75.984375 
L 37.109375 68.5 
L 28.515625 68.5 
Q 23.6875 68.5 21.796875 66.546875 
Q 19.921875 64.59375 19.921875 59.515625 
L 19.921875 54.6875 
L 34.71875 54.6875 
L 34.71875 47.703125 
L 19.921875 47.703125 
L 19.921875 0 
L 10.890625 0 
L 10.890625 47.703125 
L 2.296875 47.703125 
L 2.296875 54.6875 
L 10.890625 54.6875 
L 10.890625 58.5 
Q 10.890625 67.625 15.140625 71.796875 
Q 19.390625 75.984375 28.609375 75.984375 
z
" id="DejaVuSans-66"/>
      <path d="M 44.28125 53.078125 
L 44.28125 44.578125 
Q 40.484375 46.53125 36.375 47.5 
Q 32.28125 48.484375 27.875 48.484375 
Q 21.1875 48.484375 17.84375 46.4375 
Q 14.5 44.390625 14.5 40.28125 
Q 14.5 37.15625 16.890625 35.375 
Q 19.28125 33.59375 26.515625 31.984375 
L 29.59375 31.296875 
Q 39.15625 29.25 43.1875 25.515625 
Q 47.21875 21.78125 47.21875 15.09375 
Q 47.21875 7.46875 41.1875 3.015625 
Q 35.15625 -1.421875 24.609375 -1.421875 
Q 20.21875 -1.421875 15.453125 -0.5625 
Q 10.6875 0.296875 5.421875 2 
L 5.421875 11.28125 
Q 10.40625 8.6875 15.234375 7.390625 
Q 20.0625 6.109375 24.8125 6.109375 
Q 31.15625 6.109375 34.5625 8.28125 
Q 37.984375 10.453125 37.984375 14.40625 
Q 37.984375 18.0625 35.515625 20.015625 
Q 33.0625 21.96875 24.703125 23.78125 
L 21.578125 24.515625 
Q 13.234375 26.265625 9.515625 29.90625 
Q 5.8125 33.546875 5.8125 39.890625 
Q 5.8125 47.609375 11.28125 51.796875 
Q 16.75 56 26.8125 56 
Q 31.78125 56 36.171875 55.265625 
Q 40.578125 54.546875 44.28125 53.078125 
z
" id="DejaVuSans-73"/>
     </defs>
     <g transform="translate(90.728125 303.124062)rotate(-90)scale(0.1 -0.1)">
      <use xlink:href="#DejaVuSans-66"/>
      <use x="35.205078" xlink:href="#DejaVuSans-69"/>
      <use x="62.988281" xlink:href="#DejaVuSans-74"/>
      <use x="102.197266" xlink:href="#DejaVuSans-6e"/>
      <use x="165.576172" xlink:href="#DejaVuSans-65"/>
      <use x="227.099609" xlink:href="#DejaVuSans-73"/>
      <use x="279.199219" xlink:href="#DejaVuSans-73"/>
     </g>
    </g>
   </g>
   <g id="line2d_13">
    <path clip-path="url(#p220706c965)" d="M 144 88.887273 
L 1037.15712 88.887273 
L 1037.15712 88.887273 
" style="fill:none;stroke:#000000;stroke-dasharray:3.2,0.8,0.5,0.8;stroke-dashoffset:0;stroke-width:0.5;"/>
   </g>
   <g id="line2d_14">
    <path clip-path="url(#p220706c965)" d="M 144 479.933253 
L 144.35712 474.820693 
L 144.71424 474.820693 
L 145.42848 461.029265 
L 145.7856 446.602463 
L 146.14272 441.65492 
L 147.21408 415.184229 
L 147.5712 398.366294 
L 147.92832 398.366294 
L 150.07104 341.872464 
L 150.78528 327.100608 
L 151.49952 305.238805 
L 152.21376 292.715533 
L 152.57088 280.871891 
L 152.928 273.722727 
L 153.28512 271.345283 
L 153.64224 266.367857 
L 153.99936 257.19621 
L 154.35648 254.130462 
L 154.7136 243.096326 
L 155.07072 240.083382 
L 155.42784 239.75471 
L 155.78496 228.735347 
L 156.4992 219.835464 
L 156.85632 211.677978 
L 157.21344 211.433059 
L 157.57056 205.596047 
L 157.92768 203.253313 
L 158.64192 199.806536 
L 158.99904 196.297004 
L 159.35616 190.859876 
L 159.71328 190.265157 
L 160.42752 184.403145 
L 160.78464 179.2183 
L 161.856 169.449737 
L 162.21312 169.449737 
L 162.92736 162.555323 
L 163.28448 162.365094 
L 163.6416 158.888823 
L 163.99872 158.888823 
L 164.35584 155.580797 
L 164.71296 154.865064 
L 165.07008 152.648332 
L 165.4272 152.292 
L 165.78432 152.292 
L 166.14144 148.503337 
L 166.49856 146.037557 
L 166.85568 145.288496 
L 167.92704 141.720223 
L 168.28416 139.796092 
L 168.64128 139.796092 
L 168.9984 139.429808 
L 169.35552 137.741103 
L 169.71264 135.401994 
L 170.42688 135.401994 
L 170.784 134.617615 
L 171.49824 134.617615 
L 171.85536 132.907389 
L 173.28384 132.907389 
L 173.64096 131.532878 
L 173.99808 131.532878 
L 174.71232 129.573061 
L 175.78368 129.501352 
L 176.1408 128.134904 
L 176.49792 127.90496 
L 177.56928 127.90496 
L 177.9264 127.024508 
L 188.64 127.024508 
L 188.99712 126.862133 
L 190.06848 126.862133 
L 190.4256 126.725642 
L 191.49696 126.725642 
L 191.85408 126.456877 
L 199.3536 126.456877 
L 199.71072 126.32412 
L 201.1392 126.32412 
L 201.85344 126.210001 
L 204.35328 126.210001 
L 204.7104 124.321627 
L 252.20736 124.321627 
L 252.56448 123.747284 
L 297.20448 123.642997 
L 297.5616 122.377663 
L 370.05696 122.377663 
L 370.41408 121.904421 
L 383.98464 121.904421 
L 384.34176 121.772559 
L 402.912 121.758585 
L 403.26912 120.623415 
L 424.3392 120.623415 
L 424.69632 120.196163 
L 427.9104 120.196163 
L 428.26752 120.07155 
L 451.1232 120.066065 
L 451.48032 119.160769 
L 496.83456 119.160769 
L 497.19168 118.922937 
L 501.47712 118.922937 
L 501.83424 118.282431 
L 512.19072 118.282431 
L 512.54784 117.801191 
L 527.904 117.801191 
L 528.26112 116.782555 
L 579.6864 116.739463 
L 580.04352 116.053116 
L 611.8272 116.019967 
L 612.18432 115.021355 
L 626.46912 115.021355 
L 626.82624 113.983571 
L 636.8256 113.983571 
L 637.18272 113.533406 
L 643.61088 113.533406 
L 643.968 113.334342 
L 645.39648 113.334342 
L 645.7536 113.095003 
L 646.11072 113.095003 
L 646.46784 112.461544 
L 657.18144 112.461544 
L 657.53856 111.583686 
L 670.752 111.583686 
L 671.10912 110.884039 
L 683.96544 110.884039 
L 684.32256 110.042918 
L 712.53504 109.979253 
L 712.89216 109.594128 
L 713.6064 109.594128 
L 713.96352 109.450651 
L 721.46304 109.354713 
L 721.82016 109.227242 
L 722.17728 108.109255 
L 732.17664 108.109255 
L 732.53376 107.762823 
L 737.53344 107.762823 
L 737.89056 106.944347 
L 756.81792 106.944347 
L 757.17504 106.481884 
L 773.60256 106.406489 
L 774.67392 106.353008 
L 776.1024 106.353008 
L 776.45952 104.725368 
L 796.45824 104.725368 
L 796.81536 104.526121 
L 804.31488 104.516299 
L 804.672 103.964443 
L 818.9568 103.964443 
L 819.31392 103.719603 
L 825.38496 103.719603 
L 825.74208 103.468816 
L 827.8848 103.468816 
L 828.24192 103.281358 
L 828.59904 103.281358 
L 829.31328 103.165071 
L 847.88352 103.086375 
L 848.24064 102.9846 
L 848.59776 102.714377 
L 854.6688 102.664945 
L 855.02592 102.054559 
L 862.16832 102.054559 
L 862.52544 101.129799 
L 871.81056 101.129799 
L 872.16768 100.693846 
L 888.95232 100.664421 
L 889.30944 100.038471 
L 916.80768 99.967232 
L 917.1648 99.808878 
L 926.0928 99.802045 
L 926.44992 99.44012 
L 927.8784 99.44012 
L 928.23552 99.274426 
L 936.44928 99.274426 
L 936.8064 98.749544 
L 937.52064 98.686883 
L 957.87648 98.686883 
L 958.2336 98.550639 
L 961.09056 98.550639 
L 961.44768 98.315573 
L 964.66176 98.291748 
L 965.01888 97.680252 
L 965.73312 97.580429 
L 998.23104 97.55887 
L 998.58816 97.330883 
L 999.3024 97.330883 
L 999.65952 96.853611 
L 1017.1584 96.799541 
L 1017.87264 96.699848 
L 1023.22944 96.699848 
L 1023.58656 96.449471 
L 1037.15712 96.353724 
L 1037.15712 96.353724 
" style="fill:none;stroke:#008000;stroke-linecap:square;"/>
   </g>
   <g id="line2d_15">
    <path clip-path="url(#p220706c965)" d="M 144 484.232727 
L 144.35712 479.27677 
L 144.71424 475.252973 
L 145.07136 471.093316 
L 145.42848 465.261211 
L 145.7856 462.442258 
L 146.49984 448.78748 
L 146.85696 448.78748 
L 147.21408 441.660822 
L 147.5712 437.416839 
L 147.92832 436.651017 
L 148.28544 432.079343 
L 148.99968 420.784631 
L 149.3568 420.750484 
L 149.71392 413.836705 
L 150.07104 412.163883 
L 150.42816 404.706736 
L 150.78528 403.496252 
L 151.49952 392.293235 
L 151.85664 391.948616 
L 152.21376 385.610898 
L 152.57088 384.235234 
L 153.28512 377.892695 
L 153.64224 372.234116 
L 153.99936 369.962439 
L 154.35648 360.499427 
L 154.7136 360.339041 
L 155.07072 358.28017 
L 155.78496 352.35852 
L 156.14208 346.458441 
L 156.85632 342.460272 
L 157.21344 333.979755 
L 157.57056 333.979755 
L 157.92768 333.585267 
L 158.2848 324.373805 
L 158.64192 324.373805 
L 158.99904 319.553879 
L 159.71328 315.275491 
L 160.0704 314.395002 
L 160.42752 308.614685 
L 160.78464 305.71646 
L 161.14176 304.520387 
L 161.856 293.656119 
L 162.21312 293.363184 
L 162.92736 289.004919 
L 163.28448 286.340929 
L 163.6416 281.554447 
L 163.99872 278.535369 
L 164.35584 277.24701 
L 165.07008 272.47821 
L 165.4272 267.520321 
L 166.14144 262.999871 
L 166.49856 260.975032 
L 166.85568 260.324613 
L 167.2128 258.124685 
L 167.92704 251.243794 
L 168.64128 246.423757 
L 168.9984 242.754611 
L 169.35552 241.868724 
L 169.71264 238.1585 
L 170.06976 237.822113 
L 170.42688 232.044606 
L 170.784 231.781094 
L 171.14112 227.345159 
L 171.49824 227.345159 
L 171.85536 226.41959 
L 172.21248 222.174905 
L 172.5696 221.947628 
L 172.92672 217.660644 
L 173.99808 212.02138 
L 174.3552 210.237532 
L 174.71232 209.726857 
L 175.06944 207.009826 
L 176.1408 201.696058 
L 176.85504 195.625759 
L 177.21216 195.625759 
L 177.56928 193.403409 
L 177.9264 193.403409 
L 178.64064 190.150536 
L 178.99776 188.657087 
L 179.35488 186.100078 
L 179.712 181.869586 
L 180.06912 181.869586 
L 180.78336 178.728421 
L 181.14048 177.466492 
L 181.4976 177.386159 
L 181.85472 175.047315 
L 182.21184 174.479889 
L 182.56896 174.193258 
L 182.92608 171.235734 
L 183.2832 165.253309 
L 184.35456 165.253309 
L 184.71168 164.711404 
L 185.0688 164.38547 
L 185.42592 162.030723 
L 185.78304 157.392771 
L 186.8544 157.392771 
L 187.21152 153.43296 
L 187.56864 153.43296 
L 187.92576 152.386918 
L 188.28288 152.090644 
L 188.64 151.598964 
L 188.99712 151.33879 
L 189.35424 151.33879 
L 189.71136 148.714023 
L 190.4256 148.66069 
L 190.78272 148.423036 
L 191.13984 144.578032 
L 191.49696 144.06166 
L 191.85408 142.280466 
L 192.56832 142.280466 
L 192.92544 141.752051 
L 193.28256 139.951488 
L 193.63968 139.951488 
L 193.9968 139.005458 
L 194.35392 136.727113 
L 195.06816 136.727113 
L 195.42528 134.620092 
L 196.13952 134.620092 
L 196.49664 134.374436 
L 196.85376 131.658106 
L 197.92512 131.658106 
L 198.28224 129.507497 
L 200.06784 129.507497 
L 200.42496 129.288808 
L 201.49632 129.207423 
L 201.85344 128.51821 
L 202.21056 125.969603 
L 202.56768 124.770385 
L 203.28192 124.770385 
L 203.63904 123.615886 
L 203.99616 123.615886 
L 204.35328 123.128211 
L 205.42464 123.119264 
L 205.78176 122.869005 
L 207.92448 122.869005 
L 208.2816 119.422706 
L 210.78144 119.422706 
L 211.13856 119.016445 
L 217.2096 119.016445 
L 217.56672 118.015835 
L 343.63008 118.009399 
L 343.9872 117.772312 
L 345.41568 117.772312 
L 345.7728 116.934705 
L 363.6288 116.934705 
L 363.98592 116.344397 
L 366.12864 116.344397 
L 366.48576 115.877931 
L 391.84128 115.877931 
L 392.1984 114.638885 
L 404.34048 114.638885 
L 404.6976 113.68671 
L 409.34016 113.68671 
L 409.69728 112.19523 
L 426.48192 112.19523 
L 426.83904 111.331328 
L 463.6224 111.280808 
L 463.97952 111.125274 
L 468.62208 111.125274 
L 468.9792 110.040099 
L 471.47904 110.040099 
L 471.83616 109.605223 
L 477.55008 109.605223 
L 477.9072 109.193497 
L 491.83488 109.193497 
L 492.192 108.244964 
L 497.19168 108.244964 
L 497.5488 107.626001 
L 513.6192 107.626001 
L 513.97632 107.302445 
L 516.11904 107.302445 
L 516.47616 107.125169 
L 525.40416 107.125169 
L 525.76128 106.840773 
L 531.4752 106.840773 
L 531.83232 106.562754 
L 533.97504 106.562754 
L 534.33216 105.967065 
L 556.4736 105.865748 
L 557.54496 105.786815 
L 557.90208 105.14272 
L 570.40128 105.14272 
L 570.7584 104.88156 
L 573.25824 104.88156 
L 573.61536 104.583405 
L 579.32928 104.570758 
L 579.6864 104.380449 
L 581.472 104.380449 
L 581.82912 103.281443 
L 595.04256 103.281443 
L 595.39968 103.159656 
L 609.68448 103.159656 
L 610.0416 103.037081 
L 617.54112 102.942288 
L 617.89824 102.051249 
L 645.7536 101.951296 
L 646.82496 101.935972 
L 647.18208 101.260223 
L 660.0384 101.260223 
L 660.39552 100.915232 
L 687.17952 100.915232 
L 687.53664 100.23172 
L 708.2496 100.158446 
L 708.60672 99.149339 
L 751.81824 99.149339 
L 752.17536 98.550724 
L 788.95872 98.550724 
L 789.31584 98.09298 
L 838.95552 98.09298 
L 839.31264 97.925098 
L 850.02624 97.820965 
L 850.38336 97.295913 
L 865.3824 97.295913 
L 865.73952 97.024753 
L 887.16672 96.915429 
L 887.52384 96.758209 
L 952.8768 96.758209 
L 953.23392 96.358771 
L 1019.30112 96.358771 
L 1019.65824 96.19781 
L 1021.80096 96.178507 
L 1022.5152 96.178507 
L 1022.87232 95.834983 
L 1028.22912 95.834983 
L 1028.94336 95.571018 
L 1037.15712 95.571018 
L 1037.15712 95.571018 
" style="fill:none;stroke:#ffa500;stroke-linecap:square;"/>
   </g>
   <g id="line2d_16">
    <path clip-path="url(#p220706c965)" d="M 144 456.940457 
L 146.14272 456.940457 
L 146.49984 456.686211 
L 146.85696 456.602565 
L 147.21408 448.999573 
L 147.5712 447.906296 
L 147.92832 446.093449 
L 148.99968 433.081063 
L 149.71392 429.495246 
L 150.07104 422.376387 
L 150.42816 420.896845 
L 151.1424 415.05325 
L 151.49952 408.651706 
L 152.21376 403.887294 
L 152.57088 395.985094 
L 152.928 395.985094 
L 153.99936 388.213277 
L 154.7136 380.363848 
L 155.07072 379.4363 
L 155.78496 370.453276 
L 156.14208 370.453276 
L 156.4992 367.63546 
L 156.85632 363.776262 
L 157.21344 361.864106 
L 157.57056 350.996306 
L 157.92768 350.996306 
L 158.2848 346.385806 
L 158.64192 346.385806 
L 158.99904 343.73407 
L 159.71328 341.233922 
L 160.0704 335.753956 
L 160.42752 335.532713 
L 161.14176 327.868529 
L 161.49888 327.868529 
L 161.856 325.031742 
L 162.21312 323.205806 
L 162.57024 315.607856 
L 162.92736 315.149971 
L 163.28448 312.978358 
L 163.6416 312.556776 
L 164.35584 303.250551 
L 164.71296 303.250551 
L 165.07008 300.012466 
L 165.4272 299.120602 
L 165.78432 288.723963 
L 166.49856 288.723963 
L 166.85568 286.78776 
L 167.2128 285.737271 
L 167.56992 282.59124 
L 167.92704 277.683595 
L 168.28416 277.683595 
L 168.64128 275.791665 
L 169.35552 270.373482 
L 169.71264 270.373482 
L 170.06976 266.222344 
L 170.42688 264.789916 
L 170.784 262.044404 
L 171.14112 261.361419 
L 171.49824 255.987874 
L 172.21248 255.987874 
L 173.28384 249.703063 
L 173.64096 249.506162 
L 175.06944 239.343237 
L 175.42656 237.215765 
L 175.78368 236.050065 
L 176.1408 234.422218 
L 176.49792 233.561301 
L 176.85504 231.562073 
L 177.56928 225.472379 
L 177.9264 225.413811 
L 178.64064 221.840932 
L 178.99776 221.840932 
L 179.35488 217.054451 
L 180.06912 217.054451 
L 180.78336 212.352899 
L 181.14048 212.033419 
L 181.85472 210.198695 
L 182.21184 204.413832 
L 182.56896 204.413832 
L 182.92608 203.867032 
L 183.2832 202.104548 
L 183.64032 201.4546 
L 183.99744 201.4546 
L 184.35456 199.667627 
L 184.71168 194.811878 
L 185.0688 194.811878 
L 185.42592 190.506245 
L 185.78304 190.506245 
L 186.14016 189.570113 
L 186.49728 188.158736 
L 187.92576 188.138504 
L 188.28288 183.274644 
L 188.64 183.274644 
L 188.99712 182.448311 
L 189.35424 181.026783 
L 189.71136 181.026783 
L 190.78272 177.70926 
L 191.13984 177.70926 
L 191.49696 174.954613 
L 191.85408 174.019627 
L 192.2112 171.446276 
L 192.56832 171.446276 
L 192.92544 171.128587 
L 193.28256 171.128587 
L 193.9968 169.564065 
L 194.35392 167.890973 
L 194.71104 167.890973 
L 195.06816 166.00469 
L 195.42528 166.00469 
L 195.7824 165.390056 
L 196.13952 165.253701 
L 196.49664 163.812897 
L 196.85376 163.812897 
L 197.92512 160.687651 
L 198.28224 160.670316 
L 198.63936 157.774072 
L 198.99648 156.263209 
L 200.42496 156.263209 
L 200.78208 151.18512 
L 202.21056 151.18512 
L 202.56768 150.771942 
L 202.9248 150.771942 
L 203.28192 149.313617 
L 203.63904 149.049615 
L 203.99616 145.614496 
L 205.78176 145.614496 
L 206.13888 143.469229 
L 207.21024 143.469229 
L 207.56736 143.305196 
L 207.92448 143.305196 
L 208.2816 142.922753 
L 208.63872 142.293788 
L 209.35296 142.293788 
L 209.71008 139.65646 
L 212.20992 139.65646 
L 212.56704 139.018852 
L 212.92416 139.018852 
L 213.28128 137.73018 
L 213.6384 137.73018 
L 213.99552 136.926822 
L 214.35264 133.628816 
L 217.92384 133.628816 
L 218.28096 132.24849 
L 218.63808 131.460384 
L 218.9952 131.460384 
L 219.35232 131.055229 
L 222.20928 131.006986 
L 222.5664 130.68809 
L 225.42336 130.68809 
L 225.78048 130.501706 
L 227.20896 130.501706 
L 227.56608 127.794741 
L 230.06592 127.794741 
L 230.42304 127.664115 
L 230.78016 127.664115 
L 231.13728 127.175496 
L 232.56576 127.175496 
L 232.92288 127.0129 
L 238.99392 127.0129 
L 239.35104 126.729917 
L 248.27904 126.729917 
L 248.63616 126.220951 
L 251.49312 126.220951 
L 251.85024 125.300502 
L 263.99232 125.300502 
L 264.34944 124.667123 
L 267.2064 124.667123 
L 267.56352 123.863044 
L 270.06336 123.863044 
L 270.42048 123.574703 
L 272.92032 123.574703 
L 273.27744 122.715042 
L 278.99136 122.657496 
L 279.34848 120.720066 
L 283.2768 120.720066 
L 283.63392 119.834661 
L 287.20512 119.834661 
L 287.56224 119.307207 
L 291.49056 119.307207 
L 291.84768 118.047176 
L 293.63328 118.047176 
L 293.9904 117.697492 
L 294.34752 117.697492 
L 294.70464 117.394296 
L 295.06176 117.394296 
L 295.41888 116.081284 
L 300.06144 116.081284 
L 300.41856 115.927889 
L 303.27552 115.927889 
L 303.63264 115.16308 
L 303.98976 115.16308 
L 304.34688 114.968599 
L 304.704 114.968599 
L 305.06112 114.741927 
L 307.91808 114.741927 
L 308.2752 113.649037 
L 315.06048 113.649037 
L 315.4176 113.310458 
L 316.13184 113.255306 
L 317.2032 112.752554 
L 317.56032 112.146669 
L 317.91744 111.888637 
L 318.9888 111.888637 
L 323.27424 109.939853 
L 324.70272 109.623413 
L 326.1312 109.569691 
L 351.1296 109.492621 
L 352.20096 108.803125 
L 353.62944 108.803125 
L 354.34368 108.689897 
L 354.7008 108.689897 
L 355.05792 108.360142 
L 355.77216 108.360142 
L 356.12928 107.635375 
L 357.91488 107.635375 
L 358.272 105.650281 
L 365.77152 105.650281 
L 366.12864 105.409755 
L 369.34272 105.327608 
L 369.69984 104.579402 
L 393.26976 104.579402 
L 393.62688 103.773859 
L 400.76928 103.773859 
L 401.1264 103.637195 
L 404.34048 103.637195 
L 404.6976 103.393102 
L 405.05472 103.393102 
L 405.41184 102.86044 
L 407.55456 102.86044 
L 407.91168 102.536329 
L 409.69728 102.450826 
L 410.41152 101.350341 
L 414.33984 101.350341 
L 414.69696 100.858535 
L 419.69664 100.757909 
L 420.05376 100.60262 
L 427.9104 100.60262 
L 428.26752 100.428448 
L 442.90944 100.337334 
L 443.62368 100.002515 
L 448.98048 99.953385 
L 449.69472 99.857536 
L 450.40896 99.857536 
L 451.1232 99.367899 
L 453.98016 99.331413 
L 454.33728 99.1837 
L 455.76576 99.117362 
L 457.90848 98.752026 
L 459.33696 98.646387 
L 459.69408 98.466909 
L 463.97952 98.366028 
L 464.69376 98.299124 
L 465.05088 97.901652 
L 490.04928 97.806208 
L 491.47776 97.689953 
L 497.5488 97.582035 
L 501.47712 97.570947 
L 502.54848 97.569086 
L 503.26272 97.452323 
L 508.61952 97.352334 
L 509.33376 97.26447 
L 510.40512 97.205398 
L 510.76224 97.080683 
L 513.97632 97.080683 
L 514.33344 96.8406 
L 520.04736 96.750817 
L 520.7616 96.689581 
L 522.19008 96.59633 
L 522.90432 96.525191 
L 526.1184 96.456062 
L 527.904 96.380747 
L 528.97536 96.317303 
L 529.33248 96.317303 
L 529.6896 96.138817 
L 537.90336 96.04439 
L 539.68896 96.019365 
L 548.97408 95.914951 
L 550.40256 95.884771 
L 589.68576 95.779533 
L 590.75712 95.701268 
L 598.61376 95.592023 
L 599.328 95.517291 
L 610.0416 95.414998 
L 610.75584 95.323467 
L 618.9696 95.223297 
L 622.89792 95.138174 
L 626.82624 95.052809 
L 627.18336 94.930025 
L 635.04 94.822446 
L 636.46848 94.789608 
L 643.61088 94.701082 
L 644.68224 94.653557 
L 654.32448 94.544324 
L 664.32384 94.455354 
L 682.89408 94.350389 
L 688.608 94.333036 
L 883.95264 94.226868 
L 890.3808 94.219769 
L 1037.15712 94.155946 
L 1037.15712 94.155946 
" style="fill:none;stroke:#0000ff;stroke-linecap:square;"/>
   </g>
   <g id="line2d_17">
    <path clip-path="url(#p220706c965)" d="M 144 483.6991 
L 144.35712 481.840721 
L 144.71424 475.414477 
L 145.07136 474.187673 
L 145.42848 470.468069 
L 146.14272 459.598427 
L 146.49984 450.946902 
L 147.5712 435.591564 
L 147.92832 424.684019 
L 148.28544 395.293853 
L 148.64256 395.293853 
L 148.99968 385.515706 
L 149.3568 372.304198 
L 149.71392 347.68176 
L 150.07104 331.42928 
L 150.42816 322.338165 
L 150.78528 322.09705 
L 151.1424 319.150349 
L 151.49952 319.150349 
L 151.85664 309.328135 
L 158.2848 309.328135 
L 158.64192 286.275374 
L 158.99904 286.275374 
L 159.35616 277.579416 
L 159.71328 277.579416 
L 160.0704 262.366546 
L 160.42752 256.749264 
L 160.78464 256.749264 
L 161.49888 233.45766 
L 161.856 223.428359 
L 162.57024 211.823046 
L 162.92736 209.21835 
L 163.28448 194.872189 
L 163.6416 188.364803 
L 163.99872 178.934251 
L 164.35584 178.934251 
L 164.71296 178.681044 
L 165.07008 171.785535 
L 165.4272 171.785535 
L 165.78432 164.22398 
L 166.14144 164.22398 
L 166.49856 159.92523 
L 166.85568 159.92523 
L 167.2128 153.741309 
L 167.56992 153.741309 
L 167.92704 150.632463 
L 168.28416 150.632463 
L 168.64128 145.203015 
L 168.9984 145.203015 
L 169.35552 143.824406 
L 169.71264 143.824406 
L 170.784 136.804911 
L 171.14112 136.804911 
L 171.49824 134.347531 
L 171.85536 134.347531 
L 172.21248 132.875872 
L 172.92672 132.875872 
L 173.64096 131.082117 
L 174.3552 131.082117 
L 174.71232 129.883144 
L 175.78368 129.883144 
L 176.1408 128.65868 
L 176.49792 128.65868 
L 176.85504 127.856723 
L 177.21216 125.839481 
L 179.712 125.749104 
L 180.06912 123.61091 
L 185.42592 123.61091 
L 185.78304 123.152907 
L 186.14016 123.152907 
L 186.49728 122.245432 
L 188.28288 122.245432 
L 188.64 121.854319 
L 192.2112 121.854319 
L 192.56832 120.246743 
L 204.35328 120.246743 
L 204.7104 118.586328 
L 208.63872 118.586328 
L 208.99584 118.43557 
L 217.2096 118.43557 
L 217.56672 118.053782 
L 217.92384 117.311448 
L 218.28096 117.311448 
L 218.63808 117.047048 
L 218.9952 117.047048 
L 219.70944 114.280565 
L 223.28064 114.223855 
L 223.63776 113.50796 
L 223.99488 111.777817 
L 225.06624 111.777817 
L 225.42336 110.655263 
L 225.78048 110.655263 
L 226.1376 110.492162 
L 226.49472 108.93193 
L 226.85184 108.362611 
L 227.20896 108.362611 
L 227.9232 107.283117 
L 228.28032 106.088461 
L 228.63744 105.495162 
L 229.35168 103.171969 
L 230.06592 103.113466 
L 230.42304 101.62859 
L 230.78016 101.62859 
L 231.13728 100.955675 
L 231.85152 100.955675 
L 232.56576 99.305838 
L 232.92288 99.305838 
L 233.28 98.925987 
L 233.63712 97.73552 
L 233.99424 97.73552 
L 234.35136 97.550556 
L 234.70848 96.627163 
L 235.42272 96.627163 
L 235.77984 95.225977 
L 236.13696 95.225977 
L 236.49408 94.873838 
L 236.8512 94.873838 
L 237.20832 94.682279 
L 237.56544 94.682279 
L 237.92256 94.272914 
L 238.27968 94.103269 
L 238.6368 93.663532 
L 238.99392 93.663532 
L 239.70816 93.117695 
L 240.06528 93.117695 
L 240.4224 92.736769 
L 240.77952 92.676013 
L 241.13664 92.248809 
L 241.85088 92.248809 
L 243.27936 91.835941 
L 244.35072 91.71126 
L 250.06464 91.14414 
L 251.85024 91.041198 
L 257.20704 90.930739 
L 262.92096 90.878166 
L 324.3456 90.864741 
L 1037.15712 90.864741 
L 1037.15712 90.864741 
" style="fill:none;stroke:#ff0000;stroke-linecap:square;"/>
   </g>
   <g id="patch_3">
    <path d="M 144 504 
L 144 69.12 
" style="fill:none;stroke:#000000;stroke-linecap:square;stroke-linejoin:miter;stroke-width:0.8;"/>
   </g>
   <g id="patch_4">
    <path d="M 1036.8 504 
L 1036.8 69.12 
" style="fill:none;stroke:#000000;stroke-linecap:square;stroke-linejoin:miter;stroke-width:0.8;"/>
   </g>
   <g id="patch_5">
    <path d="M 144 504 
L 1036.8 504 
" style="fill:none;stroke:#000000;stroke-linecap:square;stroke-linejoin:miter;stroke-width:0.8;"/>
   </g>
   <g id="patch_6">
    <path d="M 144 69.12 
L 1036.8 69.12 
" style="fill:none;stroke:#000000;stroke-linecap:square;stroke-linejoin:miter;stroke-width:0.8;"/>
   </g>
   <g id="legend_1">
    <g id="patch_7">
     <path d="M 915.984375 499 
L 1029.8 499 
Q 1031.8 499 1031.8 497 
L 1031.8 424.609375 
Q 1031.8 422.609375 1029.8 422.609375 
L 915.984375 422.609375 
Q 913.984375 422.609375 913.984375 424.609375 
L 913.984375 497 
Q 913.984375 499 915.984375 499 
z
" style="fill:#ffffff;opacity:0.8;stroke:#cccccc;stroke-linejoin:miter;"/>
    </g>
    <g id="line2d_18">
     <path d="M 917.984375 430.707812 
L 937.984375 430.707812 
" style="fill:none;stroke:#000000;stroke-dasharray:3.2,0.8,0.5,0.8;stroke-dashoffset:0;stroke-width:0.5;"/>
    </g>
    <g id="line2d_19"/>
    <g id="text_15">
     <!-- Global Optimum -->
     <defs>
      <path d="M 59.515625 10.40625 
L 59.515625 29.984375 
L 43.40625 29.984375 
L 43.40625 38.09375 
L 69.28125 38.09375 
L 69.28125 6.78125 
Q 63.578125 2.734375 56.6875 0.65625 
Q 49.8125 -1.421875 42 -1.421875 
Q 24.90625 -1.421875 15.25 8.5625 
Q 5.609375 18.5625 5.609375 36.375 
Q 5.609375 54.25 15.25 64.234375 
Q 24.90625 74.21875 42 74.21875 
Q 49.125 74.21875 55.546875 72.453125 
Q 61.96875 70.703125 67.390625 67.28125 
L 67.390625 56.78125 
Q 61.921875 61.421875 55.765625 63.765625 
Q 49.609375 66.109375 42.828125 66.109375 
Q 29.4375 66.109375 22.71875 58.640625 
Q 16.015625 51.171875 16.015625 36.375 
Q 16.015625 21.625 22.71875 14.15625 
Q 29.4375 6.6875 42.828125 6.6875 
Q 48.046875 6.6875 52.140625 7.59375 
Q 56.25 8.5 59.515625 10.40625 
z
" id="DejaVuSans-47"/>
      <path d="M 9.421875 75.984375 
L 18.40625 75.984375 
L 18.40625 0 
L 9.421875 0 
z
" id="DejaVuSans-6c"/>
      <path d="M 48.6875 27.296875 
Q 48.6875 37.203125 44.609375 42.84375 
Q 40.53125 48.484375 33.40625 48.484375 
Q 26.265625 48.484375 22.1875 42.84375 
Q 18.109375 37.203125 18.109375 27.296875 
Q 18.109375 17.390625 22.1875 11.75 
Q 26.265625 6.109375 33.40625 6.109375 
Q 40.53125 6.109375 44.609375 11.75 
Q 48.6875 17.390625 48.6875 27.296875 
z
M 18.109375 46.390625 
Q 20.953125 51.265625 25.265625 53.625 
Q 29.59375 56 35.59375 56 
Q 45.5625 56 51.78125 48.09375 
Q 58.015625 40.1875 58.015625 27.296875 
Q 58.015625 14.40625 51.78125 6.484375 
Q 45.5625 -1.421875 35.59375 -1.421875 
Q 29.59375 -1.421875 25.265625 0.953125 
Q 20.953125 3.328125 18.109375 8.203125 
L 18.109375 0 
L 9.078125 0 
L 9.078125 75.984375 
L 18.109375 75.984375 
z
" id="DejaVuSans-62"/>
      <path id="DejaVuSans-20"/>
      <path d="M 39.40625 66.21875 
Q 28.65625 66.21875 22.328125 58.203125 
Q 16.015625 50.203125 16.015625 36.375 
Q 16.015625 22.609375 22.328125 14.59375 
Q 28.65625 6.59375 39.40625 6.59375 
Q 50.140625 6.59375 56.421875 14.59375 
Q 62.703125 22.609375 62.703125 36.375 
Q 62.703125 50.203125 56.421875 58.203125 
Q 50.140625 66.21875 39.40625 66.21875 
z
M 39.40625 74.21875 
Q 54.734375 74.21875 63.90625 63.9375 
Q 73.09375 53.65625 73.09375 36.375 
Q 73.09375 19.140625 63.90625 8.859375 
Q 54.734375 -1.421875 39.40625 -1.421875 
Q 24.03125 -1.421875 14.8125 8.828125 
Q 5.609375 19.09375 5.609375 36.375 
Q 5.609375 53.65625 14.8125 63.9375 
Q 24.03125 74.21875 39.40625 74.21875 
z
" id="DejaVuSans-4f"/>
      <path d="M 18.109375 8.203125 
L 18.109375 -20.796875 
L 9.078125 -20.796875 
L 9.078125 54.6875 
L 18.109375 54.6875 
L 18.109375 46.390625 
Q 20.953125 51.265625 25.265625 53.625 
Q 29.59375 56 35.59375 56 
Q 45.5625 56 51.78125 48.09375 
Q 58.015625 40.1875 58.015625 27.296875 
Q 58.015625 14.40625 51.78125 6.484375 
Q 45.5625 -1.421875 35.59375 -1.421875 
Q 29.59375 -1.421875 25.265625 0.953125 
Q 20.953125 3.328125 18.109375 8.203125 
z
M 48.6875 27.296875 
Q 48.6875 37.203125 44.609375 42.84375 
Q 40.53125 48.484375 33.40625 48.484375 
Q 26.265625 48.484375 22.1875 42.84375 
Q 18.109375 37.203125 18.109375 27.296875 
Q 18.109375 17.390625 22.1875 11.75 
Q 26.265625 6.109375 33.40625 6.109375 
Q 40.53125 6.109375 44.609375 11.75 
Q 48.6875 17.390625 48.6875 27.296875 
z
" id="DejaVuSans-70"/>
      <path d="M 52 44.1875 
Q 55.375 50.25 60.0625 53.125 
Q 64.75 56 71.09375 56 
Q 79.640625 56 84.28125 50.015625 
Q 88.921875 44.046875 88.921875 33.015625 
L 88.921875 0 
L 79.890625 0 
L 79.890625 32.71875 
Q 79.890625 40.578125 77.09375 44.375 
Q 74.3125 48.1875 68.609375 48.1875 
Q 61.625 48.1875 57.5625 43.546875 
Q 53.515625 38.921875 53.515625 30.90625 
L 53.515625 0 
L 44.484375 0 
L 44.484375 32.71875 
Q 44.484375 40.625 41.703125 44.40625 
Q 38.921875 48.1875 33.109375 48.1875 
Q 26.21875 48.1875 22.15625 43.53125 
Q 18.109375 38.875 18.109375 30.90625 
L 18.109375 0 
L 9.078125 0 
L 9.078125 54.6875 
L 18.109375 54.6875 
L 18.109375 46.1875 
Q 21.1875 51.21875 25.484375 53.609375 
Q 29.78125 56 35.6875 56 
Q 41.65625 56 45.828125 52.96875 
Q 50 49.953125 52 44.1875 
z
" id="DejaVuSans-6d"/>
      <path d="M 8.5 21.578125 
L 8.5 54.6875 
L 17.484375 54.6875 
L 17.484375 21.921875 
Q 17.484375 14.15625 20.5 10.265625 
Q 23.53125 6.390625 29.59375 6.390625 
Q 36.859375 6.390625 41.078125 11.03125 
Q 45.3125 15.671875 45.3125 23.6875 
L 45.3125 54.6875 
L 54.296875 54.6875 
L 54.296875 0 
L 45.3125 0 
L 45.3125 8.40625 
Q 42.046875 3.421875 37.71875 1 
Q 33.40625 -1.421875 27.6875 -1.421875 
Q 18.265625 -1.421875 13.375 4.4375 
Q 8.5 10.296875 8.5 21.578125 
z
M 31.109375 56 
z
" id="DejaVuSans-75"/>
     </defs>
     <g transform="translate(945.984375 434.207812)scale(0.1 -0.1)">
      <use xlink:href="#DejaVuSans-47"/>
      <use x="77.490234" xlink:href="#DejaVuSans-6c"/>
      <use x="105.273438" xlink:href="#DejaVuSans-6f"/>
      <use x="166.455078" xlink:href="#DejaVuSans-62"/>
      <use x="229.931641" xlink:href="#DejaVuSans-61"/>
      <use x="291.210938" xlink:href="#DejaVuSans-6c"/>
      <use x="318.994141" xlink:href="#DejaVuSans-20"/>
      <use x="350.78125" xlink:href="#DejaVuSans-4f"/>
      <use x="429.492188" xlink:href="#DejaVuSans-70"/>
      <use x="492.96875" xlink:href="#DejaVuSans-74"/>
      <use x="532.177734" xlink:href="#DejaVuSans-69"/>
      <use x="559.960938" xlink:href="#DejaVuSans-6d"/>
      <use x="657.373047" xlink:href="#DejaVuSans-75"/>
      <use x="720.751953" xlink:href="#DejaVuSans-6d"/>
     </g>
    </g>
    <g id="line2d_20">
     <path d="M 917.984375 445.385937 
L 937.984375 445.385937 
" style="fill:none;stroke:#008000;stroke-linecap:square;"/>
    </g>
    <g id="line2d_21"/>
    <g id="text_16">
     <!-- GA -->
     <defs>
      <path d="M 34.1875 63.1875 
L 20.796875 26.90625 
L 47.609375 26.90625 
z
M 28.609375 72.90625 
L 39.796875 72.90625 
L 67.578125 0 
L 57.328125 0 
L 50.6875 18.703125 
L 17.828125 18.703125 
L 11.1875 0 
L 0.78125 0 
z
" id="DejaVuSans-41"/>
     </defs>
     <g transform="translate(945.984375 448.885937)scale(0.1 -0.1)">
      <use xlink:href="#DejaVuSans-47"/>
      <use x="77.490234" xlink:href="#DejaVuSans-41"/>
     </g>
    </g>
    <g id="line2d_22">
     <path d="M 917.984375 460.064062 
L 937.984375 460.064062 
" style="fill:none;stroke:#ff0000;stroke-linecap:square;"/>
    </g>
    <g id="line2d_23"/>
    <g id="text_17">
     <!-- CMA-ES -->
     <defs>
      <path d="M 64.40625 67.28125 
L 64.40625 56.890625 
Q 59.421875 61.53125 53.78125 63.8125 
Q 48.140625 66.109375 41.796875 66.109375 
Q 29.296875 66.109375 22.65625 58.46875 
Q 16.015625 50.828125 16.015625 36.375 
Q 16.015625 21.96875 22.65625 14.328125 
Q 29.296875 6.6875 41.796875 6.6875 
Q 48.140625 6.6875 53.78125 8.984375 
Q 59.421875 11.28125 64.40625 15.921875 
L 64.40625 5.609375 
Q 59.234375 2.09375 53.4375 0.328125 
Q 47.65625 -1.421875 41.21875 -1.421875 
Q 24.65625 -1.421875 15.125 8.703125 
Q 5.609375 18.84375 5.609375 36.375 
Q 5.609375 53.953125 15.125 64.078125 
Q 24.65625 74.21875 41.21875 74.21875 
Q 47.75 74.21875 53.53125 72.484375 
Q 59.328125 70.75 64.40625 67.28125 
z
" id="DejaVuSans-43"/>
      <path d="M 9.8125 72.90625 
L 24.515625 72.90625 
L 43.109375 23.296875 
L 61.8125 72.90625 
L 76.515625 72.90625 
L 76.515625 0 
L 66.890625 0 
L 66.890625 64.015625 
L 48.09375 14.015625 
L 38.1875 14.015625 
L 19.390625 64.015625 
L 19.390625 0 
L 9.8125 0 
z
" id="DejaVuSans-4d"/>
      <path d="M 4.890625 31.390625 
L 31.203125 31.390625 
L 31.203125 23.390625 
L 4.890625 23.390625 
z
" id="DejaVuSans-2d"/>
      <path d="M 9.8125 72.90625 
L 55.90625 72.90625 
L 55.90625 64.59375 
L 19.671875 64.59375 
L 19.671875 43.015625 
L 54.390625 43.015625 
L 54.390625 34.71875 
L 19.671875 34.71875 
L 19.671875 8.296875 
L 56.78125 8.296875 
L 56.78125 0 
L 9.8125 0 
z
" id="DejaVuSans-45"/>
      <path d="M 53.515625 70.515625 
L 53.515625 60.890625 
Q 47.90625 63.578125 42.921875 64.890625 
Q 37.9375 66.21875 33.296875 66.21875 
Q 25.25 66.21875 20.875 63.09375 
Q 16.5 59.96875 16.5 54.203125 
Q 16.5 49.359375 19.40625 46.890625 
Q 22.3125 44.4375 30.421875 42.921875 
L 36.375 41.703125 
Q 47.40625 39.59375 52.65625 34.296875 
Q 57.90625 29 57.90625 20.125 
Q 57.90625 9.515625 50.796875 4.046875 
Q 43.703125 -1.421875 29.984375 -1.421875 
Q 24.8125 -1.421875 18.96875 -0.25 
Q 13.140625 0.921875 6.890625 3.21875 
L 6.890625 13.375 
Q 12.890625 10.015625 18.65625 8.296875 
Q 24.421875 6.59375 29.984375 6.59375 
Q 38.421875 6.59375 43.015625 9.90625 
Q 47.609375 13.234375 47.609375 19.390625 
Q 47.609375 24.75 44.3125 27.78125 
Q 41.015625 30.8125 33.5 32.328125 
L 27.484375 33.5 
Q 16.453125 35.6875 11.515625 40.375 
Q 6.59375 45.0625 6.59375 53.421875 
Q 6.59375 63.09375 13.40625 68.65625 
Q 20.21875 74.21875 32.171875 74.21875 
Q 37.3125 74.21875 42.625 73.28125 
Q 47.953125 72.359375 53.515625 70.515625 
z
" id="DejaVuSans-53"/>
     </defs>
     <g transform="translate(945.984375 463.564062)scale(0.1 -0.1)">
      <use xlink:href="#DejaVuSans-43"/>
      <use x="69.824219" xlink:href="#DejaVuSans-4d"/>
      <use x="156.103516" xlink:href="#DejaVuSans-41"/>
      <use x="224.480469" xlink:href="#DejaVuSans-2d"/>
      <use x="260.564453" xlink:href="#DejaVuSans-45"/>
      <use x="323.748047" xlink:href="#DejaVuSans-53"/>
     </g>
    </g>
    <g id="line2d_24">
     <path d="M 917.984375 474.742188 
L 937.984375 474.742188 
" style="fill:none;stroke:#0000ff;stroke-linecap:square;"/>
    </g>
    <g id="line2d_25"/>
    <g id="text_18">
     <!-- PEPG / NES -->
     <defs>
      <path d="M 19.671875 64.796875 
L 19.671875 37.40625 
L 32.078125 37.40625 
Q 38.96875 37.40625 42.71875 40.96875 
Q 46.484375 44.53125 46.484375 51.125 
Q 46.484375 57.671875 42.71875 61.234375 
Q 38.96875 64.796875 32.078125 64.796875 
z
M 9.8125 72.90625 
L 32.078125 72.90625 
Q 44.34375 72.90625 50.609375 67.359375 
Q 56.890625 61.8125 56.890625 51.125 
Q 56.890625 40.328125 50.609375 34.8125 
Q 44.34375 29.296875 32.078125 29.296875 
L 19.671875 29.296875 
L 19.671875 0 
L 9.8125 0 
z
" id="DejaVuSans-50"/>
      <path d="M 25.390625 72.90625 
L 33.6875 72.90625 
L 8.296875 -9.28125 
L 0 -9.28125 
z
" id="DejaVuSans-2f"/>
      <path d="M 9.8125 72.90625 
L 23.09375 72.90625 
L 55.421875 11.921875 
L 55.421875 72.90625 
L 64.984375 72.90625 
L 64.984375 0 
L 51.703125 0 
L 19.390625 60.984375 
L 19.390625 0 
L 9.8125 0 
z
" id="DejaVuSans-4e"/>
     </defs>
     <g transform="translate(945.984375 478.242188)scale(0.1 -0.1)">
      <use xlink:href="#DejaVuSans-50"/>
      <use x="60.302734" xlink:href="#DejaVuSans-45"/>
      <use x="123.486328" xlink:href="#DejaVuSans-50"/>
      <use x="183.789062" xlink:href="#DejaVuSans-47"/>
      <use x="261.279297" xlink:href="#DejaVuSans-20"/>
      <use x="293.066406" xlink:href="#DejaVuSans-2f"/>
      <use x="326.757812" xlink:href="#DejaVuSans-20"/>
      <use x="358.544922" xlink:href="#DejaVuSans-4e"/>
      <use x="433.349609" xlink:href="#DejaVuSans-45"/>
      <use x="496.533203" xlink:href="#DejaVuSans-53"/>
     </g>
    </g>
    <g id="line2d_26">
     <path d="M 917.984375 489.420313 
L 937.984375 489.420313 
" style="fill:none;stroke:#ffa500;stroke-linecap:square;"/>
    </g>
    <g id="line2d_27"/>
    <g id="text_19">
     <!-- OpenAI-ES -->
     <defs>
      <path d="M 9.8125 72.90625 
L 19.671875 72.90625 
L 19.671875 0 
L 9.8125 0 
z
" id="DejaVuSans-49"/>
     </defs>
     <g transform="translate(945.984375 492.920313)scale(0.1 -0.1)">
      <use xlink:href="#DejaVuSans-4f"/>
      <use x="78.710938" xlink:href="#DejaVuSans-70"/>
      <use x="142.1875" xlink:href="#DejaVuSans-65"/>
      <use x="203.710938" xlink:href="#DejaVuSans-6e"/>
      <use x="267.089844" xlink:href="#DejaVuSans-41"/>
      <use x="335.498047" xlink:href="#DejaVuSans-49"/>
      <use x="364.990234" xlink:href="#DejaVuSans-2d"/>
      <use x="401.074219" xlink:href="#DejaVuSans-45"/>
      <use x="464.257812" xlink:href="#DejaVuSans-53"/>
     </g>
    </g>
   </g>
  </g>
 </g>
 <defs>
  <clipPath id="p220706c965">
   <rect height="434.88" width="892.8" x="144" y="69.12"/>
  </clipPath>
 </defs>
</svg>
