<svg width="725" height="542" viewBox="0 0 725 542" fill="none" xmlns="http://www.w3.org/2000/svg">
<rect width="725" height="542" fill="#F8FAFE"/>
<path d="M282.707 219.707C283.098 219.317 283.098 218.683 282.707 218.293L276.343 211.929C275.953 211.538 275.319 211.538 274.929 211.929C274.538 212.319 274.538 212.953 274.929 213.343L280.586 219L274.929 224.657C274.538 225.047 274.538 225.681 274.929 226.071C275.319 226.462 275.953 226.462 276.343 226.071L282.707 219.707ZM179.293 218.293C178.902 218.683 178.902 219.317 179.293 219.707L185.657 226.071C186.047 226.462 186.681 226.462 187.071 226.071C187.462 225.681 187.462 225.047 187.071 224.657L181.414 219L187.071 213.343C187.462 212.953 187.462 212.319 187.071 211.929C186.681 211.538 186.047 211.538 185.657 211.929L179.293 218.293ZM282 218L180 218L180 220L282 220L282 218Z" fill="#898E9A"/>
<path d="M110 241C110 240.448 109.552 240 109 240C108.448 240 108 240.448 108 241L110 241ZM110 461L110 241L108 241L108 461L110 461Z" fill="#898E9A"/>
<path d="M604.707 159.707C605.098 159.317 605.098 158.683 604.707 158.293L598.343 151.929C597.953 151.538 597.319 151.538 596.929 151.929C596.538 152.319 596.538 152.953 596.929 153.343L602.586 159L596.929 164.657C596.538 165.047 596.538 165.681 596.929 166.071C597.319 166.462 597.953 166.462 598.343 166.071L604.707 159.707ZM492 158C491.448 158 491 158.448 491 159C491 159.552 491.448 160 492 160L492 158ZM604 158L492 158L492 160L604 160L604 158Z" fill="#898E9A"/>
<path d="M109 460C108.448 460 108 460.448 108 461C108 461.552 108.448 462 109 462L109 460ZM143.707 461.707C144.098 461.317 144.098 460.683 143.707 460.293L137.343 453.929C136.953 453.538 136.319 453.538 135.929 453.929C135.538 454.319 135.538 454.953 135.929 455.343L141.586 461L135.929 466.657C135.538 467.047 135.538 467.681 135.929 468.071C136.319 468.462 136.953 468.462 137.343 468.071L143.707 461.707ZM109 462L143 462L143 460L109 460L109 462Z" fill="#898E9A"/>
<path d="M109 355C108.448 355 108 355.448 108 356C108 356.552 108.448 357 109 357L109 355ZM143.707 356.707C144.098 356.317 144.098 355.683 143.707 355.293L137.343 348.929C136.953 348.538 136.319 348.538 135.929 348.929C135.538 349.319 135.538 349.953 135.929 350.343L141.586 356L135.929 361.657C135.538 362.047 135.538 362.681 135.929 363.071C136.319 363.462 136.953 363.462 137.343 363.071L143.707 356.707ZM109 357L143 357L143 355L109 355L109 357Z" fill="#898E9A"/>
<rect x="48" y="189" width="124" height="58" rx="2" fill="white"/>
<path d="M89.4949 216H88.0858C88.0025 215.595 87.8567 215.239 87.6483 214.932C87.4438 214.625 87.1938 214.367 86.8983 214.159C86.6067 213.947 86.2828 213.788 85.9267 213.682C85.5707 213.576 85.1995 213.523 84.8131 213.523C84.1086 213.523 83.4703 213.701 82.8983 214.057C82.3301 214.413 81.8775 214.938 81.5404 215.631C81.207 216.324 81.0404 217.174 81.0404 218.182C81.0404 219.189 81.207 220.04 81.5404 220.733C81.8775 221.426 82.3301 221.951 82.8983 222.307C83.4703 222.663 84.1086 222.841 84.8131 222.841C85.1995 222.841 85.5707 222.788 85.9267 222.682C86.2828 222.576 86.6067 222.419 86.8983 222.21C87.1938 221.998 87.4438 221.739 87.6483 221.432C87.8567 221.121 88.0025 220.765 88.0858 220.364H89.4949C89.3889 220.958 89.1957 221.491 88.9154 221.96C88.6351 222.43 88.2866 222.83 87.8699 223.159C87.4532 223.485 86.9854 223.733 86.4665 223.903C85.9514 224.074 85.4002 224.159 84.8131 224.159C83.8207 224.159 82.9381 223.917 82.1654 223.432C81.3926 222.947 80.7847 222.258 80.3415 221.364C79.8983 220.47 79.6767 219.409 79.6767 218.182C79.6767 216.955 79.8983 215.894 80.3415 215C80.7847 214.106 81.3926 213.417 82.1654 212.932C82.9381 212.447 83.8207 212.205 84.8131 212.205C85.4002 212.205 85.9514 212.29 86.4665 212.46C86.9854 212.631 87.4532 212.881 87.8699 213.21C88.2866 213.536 88.6351 213.934 88.9154 214.403C89.1957 214.869 89.3889 215.402 89.4949 216ZM95.8392 220.364H97.3846L98.6801 222.068L99.021 222.523L100.953 225.091H99.4074L98.1346 223.386L97.8164 222.955L95.8392 220.364ZM101.43 218.182C101.43 219.409 101.208 220.47 100.765 221.364C100.322 222.258 99.7142 222.947 98.9414 223.432C98.1687 223.917 97.2861 224.159 96.2937 224.159C95.3013 224.159 94.4187 223.917 93.646 223.432C92.8733 222.947 92.2653 222.258 91.8221 221.364C91.3789 220.47 91.1574 219.409 91.1574 218.182C91.1574 216.955 91.3789 215.894 91.8221 215C92.2653 214.106 92.8733 213.417 93.646 212.932C94.4187 212.447 95.3013 212.205 96.2937 212.205C97.2861 212.205 98.1687 212.447 98.9414 212.932C99.7142 213.417 100.322 214.106 100.765 215C101.208 215.894 101.43 216.955 101.43 218.182ZM100.066 218.182C100.066 217.174 99.8979 216.324 99.5608 215.631C99.2274 214.938 98.7748 214.413 98.2028 214.057C97.6346 213.701 96.9983 213.523 96.2937 213.523C95.5892 213.523 94.9509 213.701 94.3789 214.057C93.8108 214.413 93.3581 214.938 93.021 215.631C92.6877 216.324 92.521 217.174 92.521 218.182C92.521 219.189 92.6877 220.04 93.021 220.733C93.3581 221.426 93.8108 221.951 94.3789 222.307C94.9509 222.663 95.5892 222.841 96.2937 222.841C96.9983 222.841 97.6346 222.663 98.2028 222.307C98.7748 221.951 99.2274 221.426 99.5608 220.733C99.8979 220.04 100.066 219.189 100.066 218.182ZM117.343 216H115.934C115.851 215.595 115.705 215.239 115.496 214.932C115.292 214.625 115.042 214.367 114.746 214.159C114.455 213.947 114.131 213.788 113.775 213.682C113.419 213.576 113.048 213.523 112.661 213.523C111.957 213.523 111.318 213.701 110.746 214.057C110.178 214.413 109.726 214.938 109.388 215.631C109.055 216.324 108.888 217.174 108.888 218.182C108.888 219.189 109.055 220.04 109.388 220.733C109.726 221.426 110.178 221.951 110.746 222.307C111.318 222.663 111.957 222.841 112.661 222.841C113.048 222.841 113.419 222.788 113.775 222.682C114.131 222.576 114.455 222.419 114.746 222.21C115.042 221.998 115.292 221.739 115.496 221.432C115.705 221.121 115.851 220.765 115.934 220.364H117.343C117.237 220.958 117.044 221.491 116.763 221.96C116.483 222.43 116.135 222.83 115.718 223.159C115.301 223.485 114.834 223.733 114.315 223.903C113.799 224.074 113.248 224.159 112.661 224.159C111.669 224.159 110.786 223.917 110.013 223.432C109.241 222.947 108.633 222.258 108.19 221.364C107.746 220.47 107.525 219.409 107.525 218.182C107.525 216.955 107.746 215.894 108.19 215C108.633 214.106 109.241 213.417 110.013 212.932C110.786 212.447 111.669 212.205 112.661 212.205C113.248 212.205 113.799 212.29 114.315 212.46C114.834 212.631 115.301 212.881 115.718 213.21C116.135 213.536 116.483 213.934 116.763 214.403C117.044 214.869 117.237 215.402 117.343 216ZM122.824 224.182C122.036 224.182 121.344 223.994 120.75 223.619C120.159 223.244 119.697 222.72 119.363 222.045C119.034 221.371 118.869 220.583 118.869 219.682C118.869 218.773 119.034 217.979 119.363 217.301C119.697 216.623 120.159 216.097 120.75 215.722C121.344 215.347 122.036 215.159 122.824 215.159C123.612 215.159 124.301 215.347 124.892 215.722C125.487 216.097 125.949 216.623 126.278 217.301C126.612 217.979 126.778 218.773 126.778 219.682C126.778 220.583 126.612 221.371 126.278 222.045C125.949 222.72 125.487 223.244 124.892 223.619C124.301 223.994 123.612 224.182 122.824 224.182ZM122.824 222.977C123.422 222.977 123.915 222.824 124.301 222.517C124.687 222.21 124.973 221.807 125.159 221.307C125.344 220.807 125.437 220.265 125.437 219.682C125.437 219.098 125.344 218.555 125.159 218.051C124.973 217.547 124.687 217.14 124.301 216.83C123.915 216.519 123.422 216.364 122.824 216.364C122.225 216.364 121.733 216.519 121.346 216.83C120.96 217.14 120.674 217.547 120.488 218.051C120.303 218.555 120.21 219.098 120.21 219.682C120.21 220.265 120.303 220.807 120.488 221.307C120.674 221.807 120.96 222.21 121.346 222.517C121.733 222.824 122.225 222.977 122.824 222.977ZM128.665 224V215.273H129.961V216.591H130.051C130.211 216.159 130.498 215.809 130.915 215.54C131.332 215.271 131.801 215.136 132.324 215.136C132.423 215.136 132.546 215.138 132.693 215.142C132.841 215.146 132.953 215.152 133.029 215.159V216.523C132.983 216.511 132.879 216.494 132.716 216.472C132.557 216.445 132.389 216.432 132.211 216.432C131.786 216.432 131.408 216.521 131.074 216.699C130.745 216.873 130.483 217.116 130.29 217.426C130.101 217.733 130.006 218.083 130.006 218.477V224H128.665ZM137.852 224.182C137.011 224.182 136.285 223.996 135.676 223.625C135.069 223.25 134.602 222.727 134.272 222.057C133.946 221.383 133.783 220.598 133.783 219.705C133.783 218.811 133.946 218.023 134.272 217.341C134.602 216.655 135.06 216.121 135.647 215.739C136.238 215.352 136.927 215.159 137.715 215.159C138.17 215.159 138.619 215.235 139.062 215.386C139.505 215.538 139.908 215.784 140.272 216.125C140.636 216.462 140.926 216.909 141.141 217.466C141.357 218.023 141.465 218.708 141.465 219.523V220.091H134.738V218.932H140.102C140.102 218.439 140.003 218 139.806 217.614C139.613 217.227 139.337 216.922 138.977 216.699C138.621 216.475 138.2 216.364 137.715 216.364C137.181 216.364 136.719 216.496 136.329 216.761C135.943 217.023 135.645 217.364 135.437 217.784C135.229 218.205 135.124 218.655 135.124 219.136V219.909C135.124 220.568 135.238 221.127 135.465 221.585C135.696 222.04 136.016 222.386 136.426 222.625C136.835 222.86 137.31 222.977 137.852 222.977C138.204 222.977 138.522 222.928 138.806 222.83C139.094 222.727 139.342 222.576 139.551 222.375C139.759 222.17 139.92 221.917 140.033 221.614L141.329 221.977C141.193 222.417 140.963 222.803 140.641 223.136C140.319 223.466 139.922 223.723 139.448 223.909C138.975 224.091 138.443 224.182 137.852 224.182Z" fill="black"/>
<rect x="48" y="189" width="124" height="58" rx="2" stroke="#1472EC" stroke-width="2"/>
<path fill-rule="evenodd" clip-rule="evenodd" d="M282.356 332.247H149V380.685C149 385.83 178.853 390 215.678 390C252.503 390 282.356 385.83 282.356 380.685V332.247Z" fill="#FEDA8A"/>
<path d="M149 332.247V331.247H148V332.247H149ZM282.356 332.247H283.356V331.247H282.356V332.247ZM149 333.247H282.356V331.247H149V333.247ZM150 380.685V332.247H148V380.685H150ZM215.678 389C197.297 389 180.676 387.959 168.668 386.281C162.657 385.442 157.843 384.448 154.554 383.361C152.902 382.816 151.694 382.266 150.918 381.736C150.102 381.179 150 380.812 150 380.685H148C148 381.844 148.831 382.733 149.791 383.388C150.792 384.072 152.204 384.691 153.926 385.26C157.385 386.403 162.336 387.416 168.391 388.262C180.516 389.956 197.234 391 215.678 391V389ZM281.356 380.685C281.356 380.812 281.254 381.179 280.438 381.736C279.662 382.266 278.454 382.816 276.803 383.361C273.513 384.448 268.7 385.442 262.688 386.281C250.68 387.959 234.059 389 215.678 389V391C234.122 391 250.84 389.956 262.965 388.262C269.02 387.416 273.971 386.403 277.43 385.26C279.152 384.691 280.564 384.072 281.565 383.388C282.525 382.733 283.356 381.844 283.356 380.685H281.356ZM281.356 332.247V380.685H283.356V332.247H281.356Z" fill="#FDB515"/>
<ellipse cx="215.678" cy="331.315" rx="66.6781" ry="9.31507" fill="#FEDA8A" stroke="#FDB515" stroke-width="2"/>
<path d="M172.893 372.256V360.62H176.825C177.738 360.62 178.484 360.785 179.064 361.114C179.647 361.44 180.079 361.881 180.359 362.438C180.639 362.995 180.779 363.616 180.779 364.302C180.779 364.987 180.639 365.61 180.359 366.171C180.083 366.732 179.654 367.179 179.075 367.512C178.495 367.842 177.753 368.006 176.848 368.006H174.029V366.756H176.802C177.427 366.756 177.929 366.648 178.308 366.432C178.687 366.217 178.961 365.925 179.132 365.557C179.306 365.186 179.393 364.768 179.393 364.302C179.393 363.836 179.306 363.419 179.132 363.052C178.961 362.684 178.685 362.396 178.302 362.188C177.92 361.976 177.412 361.87 176.779 361.87H174.302V372.256H172.893ZM186.159 372.438C185.371 372.438 184.68 372.251 184.085 371.876C183.494 371.501 183.032 370.976 182.699 370.302C182.369 369.628 182.205 368.84 182.205 367.938C182.205 367.029 182.369 366.235 182.699 365.557C183.032 364.879 183.494 364.353 184.085 363.978C184.68 363.603 185.371 363.415 186.159 363.415C186.947 363.415 187.637 363.603 188.227 363.978C188.822 364.353 189.284 364.879 189.614 365.557C189.947 366.235 190.114 367.029 190.114 367.938C190.114 368.84 189.947 369.628 189.614 370.302C189.284 370.976 188.822 371.501 188.227 371.876C187.637 372.251 186.947 372.438 186.159 372.438ZM186.159 371.234C186.758 371.234 187.25 371.08 187.637 370.773C188.023 370.467 188.309 370.063 188.494 369.563C188.68 369.063 188.773 368.521 188.773 367.938C188.773 367.355 188.68 366.811 188.494 366.307C188.309 365.804 188.023 365.396 187.637 365.086C187.25 364.775 186.758 364.62 186.159 364.62C185.561 364.62 185.068 364.775 184.682 365.086C184.296 365.396 184.01 365.804 183.824 366.307C183.638 366.811 183.546 367.355 183.546 367.938C183.546 368.521 183.638 369.063 183.824 369.563C184.01 370.063 184.296 370.467 184.682 370.773C185.068 371.08 185.561 371.234 186.159 371.234ZM198.182 365.484L196.978 365.824C196.902 365.624 196.79 365.429 196.643 365.239C196.499 365.046 196.302 364.887 196.052 364.762C195.802 364.637 195.482 364.574 195.092 364.574C194.557 364.574 194.112 364.698 193.756 364.944C193.404 365.186 193.228 365.495 193.228 365.87C193.228 366.203 193.349 366.467 193.592 366.66C193.834 366.853 194.213 367.014 194.728 367.143L196.023 367.461C196.804 367.65 197.385 367.94 197.768 368.33C198.15 368.717 198.342 369.215 198.342 369.824C198.342 370.324 198.198 370.771 197.91 371.165C197.626 371.559 197.228 371.87 196.717 372.097C196.205 372.324 195.611 372.438 194.932 372.438C194.042 372.438 193.306 372.245 192.722 371.859C192.139 371.472 191.77 370.908 191.614 370.165L192.887 369.847C193.008 370.317 193.237 370.669 193.575 370.904C193.915 371.139 194.361 371.256 194.91 371.256C195.535 371.256 196.031 371.124 196.398 370.859C196.77 370.59 196.955 370.268 196.955 369.893C196.955 369.59 196.849 369.336 196.637 369.131C196.425 368.923 196.099 368.768 195.66 368.665L194.205 368.324C193.406 368.135 192.819 367.842 192.444 367.444C192.073 367.042 191.887 366.54 191.887 365.938C191.887 365.446 192.025 365.01 192.302 364.631C192.582 364.253 192.963 363.955 193.444 363.739C193.929 363.523 194.478 363.415 195.092 363.415C195.955 363.415 196.633 363.605 197.126 363.984C197.622 364.362 197.974 364.862 198.182 365.484ZM203.996 363.529V364.665H199.473V363.529H203.996ZM200.791 361.438H202.132V369.756C202.132 370.135 202.187 370.419 202.297 370.609C202.41 370.794 202.554 370.919 202.728 370.984C202.906 371.044 203.094 371.074 203.291 371.074C203.439 371.074 203.56 371.067 203.655 371.052C203.749 371.033 203.825 371.018 203.882 371.006L204.155 372.211C204.064 372.245 203.937 372.279 203.774 372.313C203.611 372.351 203.405 372.37 203.155 372.37C202.776 372.37 202.405 372.288 202.041 372.126C201.681 371.963 201.382 371.715 201.143 371.381C200.908 371.048 200.791 370.628 200.791 370.12V361.438ZM209.282 375.711C208.634 375.711 208.077 375.628 207.611 375.461C207.145 375.298 206.757 375.082 206.446 374.813C206.139 374.548 205.895 374.264 205.713 373.961L206.782 373.211C206.903 373.37 207.056 373.552 207.242 373.756C207.427 373.965 207.681 374.145 208.003 374.296C208.329 374.451 208.755 374.529 209.282 374.529C209.986 374.529 210.568 374.359 211.026 374.018C211.484 373.677 211.713 373.143 211.713 372.415V370.643H211.6C211.501 370.802 211.361 370.999 211.179 371.234C211.001 371.465 210.744 371.671 210.407 371.853C210.073 372.031 209.622 372.12 209.054 372.12C208.35 372.12 207.717 371.953 207.157 371.62C206.6 371.287 206.158 370.802 205.833 370.165C205.511 369.529 205.35 368.756 205.35 367.847C205.35 366.953 205.507 366.175 205.821 365.512C206.136 364.845 206.573 364.33 207.134 363.967C207.694 363.599 208.342 363.415 209.077 363.415C209.645 363.415 210.096 363.51 210.429 363.699C210.766 363.885 211.024 364.097 211.202 364.336C211.384 364.571 211.524 364.764 211.622 364.915H211.759V363.529H213.054V372.506C213.054 373.256 212.884 373.866 212.543 374.336C212.206 374.809 211.751 375.156 211.179 375.376C210.611 375.599 209.978 375.711 209.282 375.711ZM209.236 370.915C209.774 370.915 210.228 370.792 210.6 370.546C210.971 370.3 211.253 369.946 211.446 369.484C211.639 369.021 211.736 368.468 211.736 367.824C211.736 367.196 211.641 366.641 211.452 366.16C211.263 365.679 210.982 365.302 210.611 365.029C210.24 364.756 209.782 364.62 209.236 364.62C208.668 364.62 208.194 364.764 207.816 365.052C207.441 365.34 207.158 365.726 206.969 366.211C206.783 366.696 206.691 367.234 206.691 367.824C206.691 368.431 206.785 368.967 206.975 369.432C207.168 369.895 207.452 370.258 207.827 370.523C208.206 370.785 208.675 370.915 209.236 370.915ZM215.349 372.256V363.529H216.644V364.847H216.735C216.894 364.415 217.182 364.065 217.599 363.796C218.015 363.527 218.485 363.393 219.008 363.393C219.106 363.393 219.229 363.395 219.377 363.398C219.525 363.402 219.637 363.408 219.712 363.415V364.779C219.667 364.768 219.563 364.751 219.4 364.728C219.241 364.701 219.072 364.688 218.894 364.688C218.47 364.688 218.091 364.777 217.758 364.955C217.428 365.129 217.167 365.372 216.974 365.682C216.784 365.989 216.69 366.34 216.69 366.734V372.256H215.349ZM224.535 372.438C223.694 372.438 222.969 372.253 222.359 371.881C221.753 371.506 221.285 370.984 220.956 370.313C220.63 369.639 220.467 368.855 220.467 367.961C220.467 367.067 220.63 366.279 220.956 365.597C221.285 364.912 221.744 364.378 222.331 363.995C222.922 363.609 223.611 363.415 224.399 363.415C224.854 363.415 225.302 363.491 225.746 363.643C226.189 363.794 226.592 364.04 226.956 364.381C227.319 364.718 227.609 365.165 227.825 365.722C228.041 366.279 228.149 366.965 228.149 367.779V368.347H221.422V367.188H226.785C226.785 366.696 226.687 366.256 226.49 365.87C226.297 365.484 226.02 365.179 225.66 364.955C225.304 364.732 224.884 364.62 224.399 364.62C223.865 364.62 223.403 364.753 223.013 365.018C222.626 365.279 222.329 365.62 222.121 366.04C221.912 366.461 221.808 366.912 221.808 367.393V368.165C221.808 368.824 221.922 369.383 222.149 369.842C222.38 370.296 222.7 370.643 223.109 370.881C223.518 371.116 223.994 371.234 224.535 371.234C224.888 371.234 225.206 371.184 225.49 371.086C225.778 370.984 226.026 370.832 226.234 370.631C226.443 370.427 226.604 370.173 226.717 369.87L228.013 370.234C227.876 370.673 227.647 371.059 227.325 371.393C227.003 371.722 226.605 371.98 226.132 372.165C225.658 372.347 225.126 372.438 224.535 372.438ZM236.574 363.529C236.506 362.953 236.23 362.506 235.745 362.188C235.26 361.87 234.665 361.711 233.961 361.711C233.445 361.711 232.995 361.794 232.608 361.961C232.226 362.128 231.927 362.357 231.711 362.648C231.498 362.94 231.392 363.271 231.392 363.643C231.392 363.953 231.466 364.22 231.614 364.444C231.766 364.663 231.959 364.847 232.194 364.995C232.428 365.139 232.675 365.258 232.932 365.353C233.19 365.444 233.427 365.518 233.642 365.574L234.824 365.893C235.127 365.972 235.464 366.082 235.836 366.222C236.211 366.362 236.569 366.554 236.909 366.796C237.254 367.035 237.538 367.342 237.762 367.717C237.985 368.092 238.097 368.552 238.097 369.097C238.097 369.726 237.932 370.294 237.603 370.802C237.277 371.309 236.8 371.713 236.171 372.012C235.546 372.311 234.786 372.461 233.892 372.461C233.059 372.461 232.338 372.326 231.728 372.057C231.122 371.788 230.644 371.413 230.296 370.932C229.951 370.451 229.756 369.893 229.711 369.256H231.165C231.203 369.696 231.351 370.059 231.608 370.347C231.87 370.631 232.199 370.843 232.597 370.984C232.998 371.12 233.43 371.188 233.892 371.188C234.43 371.188 234.913 371.101 235.341 370.927C235.769 370.749 236.108 370.503 236.358 370.188C236.608 369.87 236.733 369.499 236.733 369.074C236.733 368.688 236.625 368.374 236.409 368.131C236.194 367.889 235.909 367.692 235.557 367.54C235.205 367.389 234.824 367.256 234.415 367.143L232.983 366.734C232.074 366.472 231.355 366.099 230.824 365.614C230.294 365.129 230.029 364.495 230.029 363.711C230.029 363.059 230.205 362.491 230.557 362.006C230.913 361.518 231.391 361.139 231.989 360.87C232.591 360.597 233.264 360.461 234.006 360.461C234.756 360.461 235.423 360.595 236.006 360.864C236.589 361.129 237.052 361.493 237.392 361.955C237.737 362.417 237.919 362.942 237.938 363.529H236.574ZM244.481 368.62H246.026L247.322 370.324L247.663 370.779L249.595 373.347H248.049L246.776 371.643L246.458 371.211L244.481 368.62ZM250.072 366.438C250.072 367.665 249.85 368.726 249.407 369.62C248.964 370.514 248.356 371.203 247.583 371.688C246.811 372.173 245.928 372.415 244.936 372.415C243.943 372.415 243.061 372.173 242.288 371.688C241.515 371.203 240.907 370.514 240.464 369.62C240.021 368.726 239.799 367.665 239.799 366.438C239.799 365.211 240.021 364.15 240.464 363.256C240.907 362.362 241.515 361.673 242.288 361.188C243.061 360.703 243.943 360.461 244.936 360.461C245.928 360.461 246.811 360.703 247.583 361.188C248.356 361.673 248.964 362.362 249.407 363.256C249.85 364.15 250.072 365.211 250.072 366.438ZM248.708 366.438C248.708 365.431 248.54 364.58 248.203 363.887C247.869 363.194 247.417 362.669 246.845 362.313C246.276 361.957 245.64 361.779 244.936 361.779C244.231 361.779 243.593 361.957 243.021 362.313C242.453 362.669 242 363.194 241.663 363.887C241.329 364.58 241.163 365.431 241.163 366.438C241.163 367.446 241.329 368.296 241.663 368.989C242 369.682 242.453 370.207 243.021 370.563C243.593 370.919 244.231 371.097 244.936 371.097C245.64 371.097 246.276 370.919 246.845 370.563C247.417 370.207 247.869 369.682 248.203 368.989C248.54 368.296 248.708 367.446 248.708 366.438ZM252.281 372.256V360.62H253.69V371.006H259.099V372.256H252.281Z" fill="black"/>
<path d="M396 141C396 140.448 395.552 140 395 140C394.448 140 394 140.448 394 141H396ZM394.293 175.707C394.683 176.098 395.317 176.098 395.707 175.707L402.071 169.343C402.462 168.953 402.462 168.319 402.071 167.929C401.681 167.538 401.047 167.538 400.657 167.929L395 173.586L389.343 167.929C388.953 167.538 388.319 167.538 387.929 167.929C387.538 168.319 387.538 168.953 387.929 169.343L394.293 175.707ZM394 141V175H396V141H394Z" fill="#898E9A"/>
<rect x="324" y="76" width="142" height="58" rx="2" fill="white"/>
<path d="M360.996 93H359.587C359.504 92.5947 359.358 92.2386 359.15 91.9318C358.945 91.625 358.695 91.3674 358.4 91.1591C358.108 90.947 357.784 90.7879 357.428 90.6818C357.072 90.5758 356.701 90.5227 356.315 90.5227C355.61 90.5227 354.972 90.7008 354.4 91.0568C353.832 91.4129 353.379 91.9375 353.042 92.6307C352.709 93.3239 352.542 94.1742 352.542 95.1818C352.542 96.1894 352.709 97.0398 353.042 97.733C353.379 98.4261 353.832 98.9508 354.4 99.3068C354.972 99.6629 355.61 99.8409 356.315 99.8409C356.701 99.8409 357.072 99.7879 357.428 99.6818C357.784 99.5758 358.108 99.4186 358.4 99.2102C358.695 98.9981 358.945 98.7386 359.15 98.4318C359.358 98.1212 359.504 97.7652 359.587 97.3636H360.996C360.89 97.9583 360.697 98.4905 360.417 98.9602C360.137 99.4299 359.788 99.8295 359.371 100.159C358.955 100.485 358.487 100.733 357.968 100.903C357.453 101.074 356.902 101.159 356.315 101.159C355.322 101.159 354.44 100.917 353.667 100.432C352.894 99.947 352.286 99.2576 351.843 98.3636C351.4 97.4697 351.178 96.4091 351.178 95.1818C351.178 93.9545 351.4 92.8939 351.843 92C352.286 91.1061 352.894 90.4167 353.667 89.9318C354.44 89.447 355.322 89.2045 356.315 89.2045C356.902 89.2045 357.453 89.2898 357.968 89.4602C358.487 89.6307 358.955 89.8807 359.371 90.2102C359.788 90.536 360.137 90.9337 360.417 91.4034C360.697 91.8693 360.89 92.4015 360.996 93ZM367.341 97.3636H368.886L370.182 99.0682L370.523 99.5227L372.454 102.091H370.909L369.636 100.386L369.318 99.9545L367.341 97.3636ZM372.932 95.1818C372.932 96.4091 372.71 97.4697 372.267 98.3636C371.824 99.2576 371.216 99.947 370.443 100.432C369.67 100.917 368.788 101.159 367.795 101.159C366.803 101.159 365.92 100.917 365.148 100.432C364.375 99.947 363.767 99.2576 363.324 98.3636C362.881 97.4697 362.659 96.4091 362.659 95.1818C362.659 93.9545 362.881 92.8939 363.324 92C363.767 91.1061 364.375 90.4167 365.148 89.9318C365.92 89.447 366.803 89.2045 367.795 89.2045C368.788 89.2045 369.67 89.447 370.443 89.9318C371.216 90.4167 371.824 91.1061 372.267 92C372.71 92.8939 372.932 93.9545 372.932 95.1818ZM371.568 95.1818C371.568 94.1742 371.399 93.3239 371.062 92.6307C370.729 91.9375 370.276 91.4129 369.704 91.0568C369.136 90.7008 368.5 90.5227 367.795 90.5227C367.091 90.5227 366.452 90.7008 365.881 91.0568C365.312 91.4129 364.86 91.9375 364.523 92.6307C364.189 93.3239 364.023 94.1742 364.023 95.1818C364.023 96.1894 364.189 97.0398 364.523 97.733C364.86 98.4261 365.312 98.9508 365.881 99.3068C366.452 99.6629 367.091 99.8409 367.795 99.8409C368.5 99.8409 369.136 99.6629 369.704 99.3068C370.276 98.9508 370.729 98.4261 371.062 97.733C371.399 97.0398 371.568 96.1894 371.568 95.1818ZM379.481 101V89.3636H383.413C384.326 89.3636 385.072 89.5284 385.651 89.858C386.235 90.1837 386.667 90.625 386.947 91.1818C387.227 91.7386 387.367 92.3598 387.367 93.0455C387.367 93.7311 387.227 94.3542 386.947 94.9148C386.67 95.4754 386.242 95.9223 385.663 96.2557C385.083 96.5852 384.341 96.75 383.436 96.75H380.617V95.5H383.39C384.015 95.5 384.517 95.392 384.896 95.1761C385.275 94.9602 385.549 94.6686 385.72 94.3011C385.894 93.9299 385.981 93.5114 385.981 93.0455C385.981 92.5795 385.894 92.1629 385.72 91.7955C385.549 91.428 385.273 91.1402 384.89 90.9318C384.507 90.7197 384 90.6136 383.367 90.6136H380.89V101H379.481ZM389.295 101V92.2727H390.591V93.5909H390.682C390.841 93.1591 391.129 92.8087 391.545 92.5398C391.962 92.2708 392.432 92.1364 392.954 92.1364C393.053 92.1364 393.176 92.1383 393.324 92.142C393.472 92.1458 393.583 92.1515 393.659 92.1591V93.5227C393.614 93.5114 393.509 93.4943 393.347 93.4716C393.187 93.4451 393.019 93.4318 392.841 93.4318C392.417 93.4318 392.038 93.5208 391.704 93.6989C391.375 93.8731 391.114 94.1155 390.92 94.4261C390.731 94.733 390.636 95.0833 390.636 95.4773V101H389.295ZM398.368 101.182C397.58 101.182 396.889 100.994 396.294 100.619C395.704 100.244 395.241 99.7197 394.908 99.0455C394.579 98.3712 394.414 97.5833 394.414 96.6818C394.414 95.7727 394.579 94.9792 394.908 94.3011C395.241 93.6231 395.704 93.0966 396.294 92.7216C396.889 92.3466 397.58 92.1591 398.368 92.1591C399.156 92.1591 399.846 92.3466 400.437 92.7216C401.031 93.0966 401.493 93.6231 401.823 94.3011C402.156 94.9792 402.323 95.7727 402.323 96.6818C402.323 97.5833 402.156 98.3712 401.823 99.0455C401.493 99.7197 401.031 100.244 400.437 100.619C399.846 100.994 399.156 101.182 398.368 101.182ZM398.368 99.9773C398.967 99.9773 399.459 99.8239 399.846 99.517C400.232 99.2102 400.518 98.8068 400.704 98.3068C400.889 97.8068 400.982 97.2652 400.982 96.6818C400.982 96.0985 400.889 95.5549 400.704 95.0511C400.518 94.5473 400.232 94.1402 399.846 93.8295C399.459 93.5189 398.967 93.3636 398.368 93.3636C397.77 93.3636 397.277 93.5189 396.891 93.8295C396.505 94.1402 396.219 94.5473 396.033 95.0511C395.848 95.5549 395.755 96.0985 395.755 96.6818C395.755 97.2652 395.848 97.8068 396.033 98.3068C396.219 98.8068 396.505 99.2102 396.891 99.517C397.277 99.8239 397.77 99.9773 398.368 99.9773ZM411.034 92.2727L407.806 101H406.443L403.215 92.2727H404.67L407.079 99.2273H407.17L409.579 92.2727H411.034ZM412.644 101V92.2727H413.984V101H412.644ZM413.325 90.8182C413.064 90.8182 412.839 90.7292 412.649 90.5511C412.464 90.3731 412.371 90.1591 412.371 89.9091C412.371 89.6591 412.464 89.4451 412.649 89.267C412.839 89.089 413.064 89 413.325 89C413.587 89 413.81 89.089 413.996 89.267C414.185 89.4451 414.28 89.6591 414.28 89.9091C414.28 90.1591 414.185 90.3731 413.996 90.5511C413.81 90.7292 413.587 90.8182 413.325 90.8182ZM419.576 101.182C418.849 101.182 418.207 100.998 417.65 100.631C417.093 100.259 416.657 99.7367 416.343 99.0625C416.029 98.3845 415.871 97.5833 415.871 96.6591C415.871 95.7424 416.029 94.947 416.343 94.2727C416.657 93.5985 417.095 93.0777 417.655 92.7102C418.216 92.3428 418.864 92.1591 419.599 92.1591C420.167 92.1591 420.616 92.2538 420.945 92.4432C421.279 92.6288 421.532 92.8409 421.707 93.0795C421.885 93.3144 422.023 93.5076 422.121 93.6591H422.235V89.3636H423.576V101H422.28V99.6591H422.121C422.023 99.8182 421.883 100.019 421.701 100.261C421.519 100.5 421.26 100.714 420.922 100.903C420.585 101.089 420.136 101.182 419.576 101.182ZM419.758 99.9773C420.296 99.9773 420.75 99.8371 421.121 99.5568C421.493 99.2727 421.775 98.8807 421.968 98.3807C422.161 97.8769 422.258 97.2955 422.258 96.6364C422.258 95.9848 422.163 95.4148 421.974 94.9261C421.784 94.4337 421.504 94.0511 421.133 93.7784C420.761 93.5019 420.303 93.3636 419.758 93.3636C419.189 93.3636 418.716 93.5095 418.337 93.8011C417.962 94.089 417.68 94.4811 417.491 94.9773C417.305 95.4697 417.212 96.0227 417.212 96.6364C417.212 97.2576 417.307 97.822 417.496 98.3295C417.689 98.8333 417.974 99.2348 418.349 99.5341C418.727 99.8295 419.197 99.9773 419.758 99.9773ZM429.717 101.182C428.876 101.182 428.151 100.996 427.541 100.625C426.935 100.25 426.467 99.7273 426.137 99.0568C425.812 98.3826 425.649 97.5985 425.649 96.7045C425.649 95.8106 425.812 95.0227 426.137 94.3409C426.467 93.6553 426.925 93.1212 427.512 92.7386C428.103 92.3523 428.793 92.1591 429.581 92.1591C430.035 92.1591 430.484 92.2348 430.927 92.3864C431.37 92.5379 431.774 92.7841 432.137 93.125C432.501 93.4621 432.791 93.9091 433.007 94.4659C433.223 95.0227 433.331 95.7083 433.331 96.5227V97.0909H426.603V95.9318H431.967C431.967 95.4394 431.869 95 431.672 94.6136C431.478 94.2273 431.202 93.9223 430.842 93.6989C430.486 93.4754 430.065 93.3636 429.581 93.3636C429.047 93.3636 428.584 93.4962 428.194 93.7614C427.808 94.0227 427.511 94.3636 427.302 94.7841C427.094 95.2045 426.99 95.6553 426.99 96.1364V96.9091C426.99 97.5682 427.103 98.1269 427.331 98.5852C427.562 99.0398 427.882 99.3864 428.291 99.625C428.7 99.8598 429.175 99.9773 429.717 99.9773C430.069 99.9773 430.387 99.928 430.672 99.8295C430.959 99.7273 431.208 99.5758 431.416 99.375C431.624 99.1705 431.785 98.9167 431.899 98.6136L433.194 98.9773C433.058 99.4167 432.829 99.803 432.507 100.136C432.185 100.466 431.787 100.723 431.314 100.909C430.84 101.091 430.308 101.182 429.717 101.182ZM435.21 101V92.2727H436.506V93.5909H436.597C436.756 93.1591 437.044 92.8087 437.46 92.5398C437.877 92.2708 438.347 92.1364 438.869 92.1364C438.968 92.1364 439.091 92.1383 439.239 92.142C439.387 92.1458 439.498 92.1515 439.574 92.1591V93.5227C439.529 93.5114 439.424 93.4943 439.262 93.4716C439.102 93.4451 438.934 93.4318 438.756 93.4318C438.332 93.4318 437.953 93.5208 437.619 93.6989C437.29 93.8731 437.029 94.1155 436.835 94.4261C436.646 94.733 436.551 95.0833 436.551 95.4773V101H435.21ZM386.862 112.273C386.794 111.697 386.518 111.25 386.033 110.932C385.548 110.614 384.953 110.455 384.249 110.455C383.734 110.455 383.283 110.538 382.897 110.705C382.514 110.871 382.215 111.1 381.999 111.392C381.787 111.684 381.681 112.015 381.681 112.386C381.681 112.697 381.754 112.964 381.902 113.188C382.054 113.407 382.247 113.591 382.482 113.739C382.717 113.883 382.963 114.002 383.22 114.097C383.478 114.187 383.715 114.261 383.931 114.318L385.112 114.636C385.415 114.716 385.753 114.826 386.124 114.966C386.499 115.106 386.857 115.297 387.198 115.54C387.542 115.778 387.826 116.085 388.05 116.46C388.273 116.835 388.385 117.295 388.385 117.841C388.385 118.47 388.22 119.038 387.891 119.545C387.565 120.053 387.088 120.456 386.459 120.756C385.834 121.055 385.075 121.205 384.181 121.205C383.347 121.205 382.626 121.07 382.016 120.801C381.41 120.532 380.932 120.157 380.584 119.676C380.239 119.195 380.044 118.636 379.999 118H381.453C381.491 118.439 381.639 118.803 381.897 119.091C382.158 119.375 382.487 119.587 382.885 119.727C383.287 119.864 383.718 119.932 384.181 119.932C384.718 119.932 385.201 119.845 385.629 119.67C386.057 119.492 386.397 119.246 386.647 118.932C386.897 118.614 387.022 118.242 387.022 117.818C387.022 117.432 386.914 117.117 386.698 116.875C386.482 116.633 386.198 116.436 385.845 116.284C385.493 116.133 385.112 116 384.703 115.886L383.272 115.477C382.362 115.216 381.643 114.843 381.112 114.358C380.582 113.873 380.317 113.239 380.317 112.455C380.317 111.803 380.493 111.235 380.845 110.75C381.201 110.261 381.679 109.883 382.277 109.614C382.879 109.341 383.552 109.205 384.294 109.205C385.044 109.205 385.711 109.339 386.294 109.608C386.878 109.873 387.34 110.237 387.681 110.699C388.025 111.161 388.207 111.686 388.226 112.273H386.862ZM394.133 121H390.542V109.364H394.292C395.421 109.364 396.387 109.597 397.19 110.062C397.993 110.525 398.608 111.189 399.036 112.057C399.464 112.92 399.678 113.955 399.678 115.159C399.678 116.371 399.462 117.415 399.031 118.29C398.599 119.161 397.97 119.831 397.144 120.301C396.318 120.767 395.315 121 394.133 121ZM391.951 119.75H394.042C395.004 119.75 395.801 119.564 396.434 119.193C397.067 118.822 397.538 118.294 397.849 117.608C398.159 116.922 398.315 116.106 398.315 115.159C398.315 114.22 398.161 113.411 397.854 112.733C397.548 112.051 397.089 111.528 396.479 111.165C395.87 110.797 395.11 110.614 394.201 110.614H391.951V119.75ZM401.882 121V109.364H403.291V115.136H403.427L408.655 109.364H410.496L405.609 114.614L410.496 121H408.791L404.746 115.591L403.291 117.227V121H401.882Z" fill="black"/>
<rect x="324" y="76" width="142" height="58" rx="2" stroke="#1472EC" stroke-width="2"/>
<rect x="324.074" y="183" width="142" height="58" rx="2" fill="white"/>
<path d="M356.846 210H355.437C355.354 209.595 355.208 209.239 355 208.932C354.795 208.625 354.545 208.367 354.25 208.159C353.958 207.947 353.634 207.788 353.278 207.682C352.922 207.576 352.551 207.523 352.165 207.523C351.46 207.523 350.822 207.701 350.25 208.057C349.682 208.413 349.229 208.938 348.892 209.631C348.559 210.324 348.392 211.174 348.392 212.182C348.392 213.189 348.559 214.04 348.892 214.733C349.229 215.426 349.682 215.951 350.25 216.307C350.822 216.663 351.46 216.841 352.165 216.841C352.551 216.841 352.922 216.788 353.278 216.682C353.634 216.576 353.958 216.419 354.25 216.21C354.545 215.998 354.795 215.739 355 215.432C355.208 215.121 355.354 214.765 355.437 214.364H356.846C356.74 214.958 356.547 215.491 356.267 215.96C355.987 216.43 355.638 216.83 355.221 217.159C354.805 217.485 354.337 217.733 353.818 217.903C353.303 218.074 352.752 218.159 352.165 218.159C351.172 218.159 350.29 217.917 349.517 217.432C348.744 216.947 348.136 216.258 347.693 215.364C347.25 214.47 347.028 213.409 347.028 212.182C347.028 210.955 347.25 209.894 347.693 209C348.136 208.106 348.744 207.417 349.517 206.932C350.29 206.447 351.172 206.205 352.165 206.205C352.752 206.205 353.303 206.29 353.818 206.46C354.337 206.631 354.805 206.881 355.221 207.21C355.638 207.536 355.987 207.934 356.267 208.403C356.547 208.869 356.74 209.402 356.846 210ZM363.191 214.364H364.736L366.032 216.068L366.373 216.523L368.304 219.091H366.759L365.486 217.386L365.168 216.955L363.191 214.364ZM368.782 212.182C368.782 213.409 368.56 214.47 368.117 215.364C367.674 216.258 367.066 216.947 366.293 217.432C365.52 217.917 364.638 218.159 363.645 218.159C362.653 218.159 361.77 217.917 360.998 217.432C360.225 216.947 359.617 216.258 359.174 215.364C358.731 214.47 358.509 213.409 358.509 212.182C358.509 210.955 358.731 209.894 359.174 209C359.617 208.106 360.225 207.417 360.998 206.932C361.77 206.447 362.653 206.205 363.645 206.205C364.638 206.205 365.52 206.447 366.293 206.932C367.066 207.417 367.674 208.106 368.117 209C368.56 209.894 368.782 210.955 368.782 212.182ZM367.418 212.182C367.418 211.174 367.249 210.324 366.912 209.631C366.579 208.938 366.126 208.413 365.554 208.057C364.986 207.701 364.35 207.523 363.645 207.523C362.941 207.523 362.302 207.701 361.731 208.057C361.162 208.413 360.71 208.938 360.373 209.631C360.039 210.324 359.873 211.174 359.873 212.182C359.873 213.189 360.039 214.04 360.373 214.733C360.71 215.426 361.162 215.951 361.731 216.307C362.302 216.663 362.941 216.841 363.645 216.841C364.35 216.841 364.986 216.663 365.554 216.307C366.126 215.951 366.579 215.426 366.912 214.733C367.249 214.04 367.418 213.189 367.418 212.182ZM375.331 218V206.364H379.263C380.176 206.364 380.922 206.528 381.501 206.858C382.085 207.184 382.517 207.625 382.797 208.182C383.077 208.739 383.217 209.36 383.217 210.045C383.217 210.731 383.077 211.354 382.797 211.915C382.52 212.475 382.092 212.922 381.513 213.256C380.933 213.585 380.191 213.75 379.286 213.75H376.467V212.5H379.24C379.865 212.5 380.367 212.392 380.746 212.176C381.125 211.96 381.399 211.669 381.57 211.301C381.744 210.93 381.831 210.511 381.831 210.045C381.831 209.58 381.744 209.163 381.57 208.795C381.399 208.428 381.123 208.14 380.74 207.932C380.357 207.72 379.85 207.614 379.217 207.614H376.74V218H375.331ZM385.145 218V209.273H386.441V210.591H386.532C386.691 210.159 386.979 209.809 387.395 209.54C387.812 209.271 388.282 209.136 388.805 209.136C388.903 209.136 389.026 209.138 389.174 209.142C389.322 209.146 389.433 209.152 389.509 209.159V210.523C389.464 210.511 389.359 210.494 389.197 210.472C389.037 210.445 388.869 210.432 388.691 210.432C388.267 210.432 387.888 210.521 387.555 210.699C387.225 210.873 386.964 211.116 386.77 211.426C386.581 211.733 386.486 212.083 386.486 212.477V218H385.145ZM394.218 218.182C393.43 218.182 392.739 217.994 392.145 217.619C391.554 217.244 391.091 216.72 390.758 216.045C390.429 215.371 390.264 214.583 390.264 213.682C390.264 212.773 390.429 211.979 390.758 211.301C391.091 210.623 391.554 210.097 392.145 209.722C392.739 209.347 393.43 209.159 394.218 209.159C395.006 209.159 395.696 209.347 396.287 209.722C396.881 210.097 397.343 210.623 397.673 211.301C398.006 211.979 398.173 212.773 398.173 213.682C398.173 214.583 398.006 215.371 397.673 216.045C397.343 216.72 396.881 217.244 396.287 217.619C395.696 217.994 395.006 218.182 394.218 218.182ZM394.218 216.977C394.817 216.977 395.309 216.824 395.696 216.517C396.082 216.21 396.368 215.807 396.554 215.307C396.739 214.807 396.832 214.265 396.832 213.682C396.832 213.098 396.739 212.555 396.554 212.051C396.368 211.547 396.082 211.14 395.696 210.83C395.309 210.519 394.817 210.364 394.218 210.364C393.62 210.364 393.127 210.519 392.741 210.83C392.355 211.14 392.069 211.547 391.883 212.051C391.698 212.555 391.605 213.098 391.605 213.682C391.605 214.265 391.698 214.807 391.883 215.307C392.069 215.807 392.355 216.21 392.741 216.517C393.127 216.824 393.62 216.977 394.218 216.977ZM406.884 209.273L403.656 218H402.293L399.065 209.273H400.52L402.929 216.227H403.02L405.429 209.273H406.884ZM408.494 218V209.273H409.834V218H408.494ZM409.175 207.818C408.914 207.818 408.689 207.729 408.499 207.551C408.314 207.373 408.221 207.159 408.221 206.909C408.221 206.659 408.314 206.445 408.499 206.267C408.689 206.089 408.914 206 409.175 206C409.437 206 409.66 206.089 409.846 206.267C410.035 206.445 410.13 206.659 410.13 206.909C410.13 207.159 410.035 207.373 409.846 207.551C409.66 207.729 409.437 207.818 409.175 207.818ZM415.426 218.182C414.699 218.182 414.057 217.998 413.5 217.631C412.943 217.259 412.507 216.737 412.193 216.062C411.879 215.384 411.721 214.583 411.721 213.659C411.721 212.742 411.879 211.947 412.193 211.273C412.507 210.598 412.945 210.078 413.505 209.71C414.066 209.343 414.714 209.159 415.449 209.159C416.017 209.159 416.466 209.254 416.795 209.443C417.129 209.629 417.382 209.841 417.557 210.08C417.735 210.314 417.873 210.508 417.971 210.659H418.085V206.364H419.426V218H418.13V216.659H417.971C417.873 216.818 417.733 217.019 417.551 217.261C417.369 217.5 417.11 217.714 416.772 217.903C416.435 218.089 415.986 218.182 415.426 218.182ZM415.608 216.977C416.146 216.977 416.6 216.837 416.971 216.557C417.343 216.273 417.625 215.881 417.818 215.381C418.011 214.877 418.108 214.295 418.108 213.636C418.108 212.985 418.013 212.415 417.824 211.926C417.634 211.434 417.354 211.051 416.983 210.778C416.611 210.502 416.153 210.364 415.608 210.364C415.04 210.364 414.566 210.509 414.187 210.801C413.812 211.089 413.53 211.481 413.341 211.977C413.155 212.47 413.062 213.023 413.062 213.636C413.062 214.258 413.157 214.822 413.346 215.33C413.54 215.833 413.824 216.235 414.199 216.534C414.577 216.83 415.047 216.977 415.608 216.977ZM425.567 218.182C424.726 218.182 424.001 217.996 423.391 217.625C422.785 217.25 422.317 216.727 421.987 216.057C421.662 215.383 421.499 214.598 421.499 213.705C421.499 212.811 421.662 212.023 421.987 211.341C422.317 210.655 422.775 210.121 423.362 209.739C423.953 209.352 424.643 209.159 425.431 209.159C425.885 209.159 426.334 209.235 426.777 209.386C427.22 209.538 427.624 209.784 427.987 210.125C428.351 210.462 428.641 210.909 428.857 211.466C429.073 212.023 429.181 212.708 429.181 213.523V214.091H422.453V212.932H427.817C427.817 212.439 427.719 212 427.522 211.614C427.328 211.227 427.052 210.922 426.692 210.699C426.336 210.475 425.915 210.364 425.431 210.364C424.897 210.364 424.434 210.496 424.044 210.761C423.658 211.023 423.361 211.364 423.152 211.784C422.944 212.205 422.84 212.655 422.84 213.136V213.909C422.84 214.568 422.953 215.127 423.181 215.585C423.412 216.04 423.732 216.386 424.141 216.625C424.55 216.86 425.025 216.977 425.567 216.977C425.919 216.977 426.237 216.928 426.522 216.83C426.809 216.727 427.058 216.576 427.266 216.375C427.474 216.17 427.635 215.917 427.749 215.614L429.044 215.977C428.908 216.417 428.679 216.803 428.357 217.136C428.035 217.466 427.637 217.723 427.164 217.909C426.69 218.091 426.158 218.182 425.567 218.182ZM431.06 218V209.273H432.356V210.591H432.447C432.606 210.159 432.894 209.809 433.31 209.54C433.727 209.271 434.197 209.136 434.72 209.136C434.818 209.136 434.941 209.138 435.089 209.142C435.237 209.146 435.348 209.152 435.424 209.159V210.523C435.379 210.511 435.274 210.494 435.112 210.472C434.952 210.445 434.784 210.432 434.606 210.432C434.182 210.432 433.803 210.521 433.47 210.699C433.14 210.873 432.879 211.116 432.685 211.426C432.496 211.733 432.401 212.083 432.401 212.477V218H431.06ZM443.035 211.227L441.831 211.568C441.755 211.367 441.643 211.172 441.496 210.983C441.352 210.79 441.155 210.631 440.905 210.506C440.655 210.381 440.335 210.318 439.944 210.318C439.41 210.318 438.965 210.441 438.609 210.688C438.257 210.93 438.081 211.239 438.081 211.614C438.081 211.947 438.202 212.21 438.444 212.403C438.687 212.597 439.066 212.758 439.581 212.886L440.876 213.205C441.657 213.394 442.238 213.684 442.621 214.074C443.003 214.46 443.194 214.958 443.194 215.568C443.194 216.068 443.051 216.515 442.763 216.909C442.479 217.303 442.081 217.614 441.569 217.841C441.058 218.068 440.463 218.182 439.785 218.182C438.895 218.182 438.158 217.989 437.575 217.602C436.992 217.216 436.622 216.652 436.467 215.909L437.74 215.591C437.861 216.061 438.09 216.413 438.427 216.648C438.768 216.883 439.213 217 439.763 217C440.388 217 440.884 216.867 441.251 216.602C441.622 216.333 441.808 216.011 441.808 215.636C441.808 215.333 441.702 215.08 441.49 214.875C441.278 214.667 440.952 214.511 440.513 214.409L439.058 214.068C438.259 213.879 437.672 213.585 437.297 213.188C436.926 212.786 436.74 212.284 436.74 211.682C436.74 211.189 436.878 210.754 437.155 210.375C437.435 209.996 437.816 209.699 438.297 209.483C438.782 209.267 439.331 209.159 439.944 209.159C440.808 209.159 441.486 209.348 441.979 209.727C442.475 210.106 442.827 210.606 443.035 211.227Z" fill="black"/>
<rect x="324.074" y="183" width="142" height="58" rx="2" stroke="#1472EC" stroke-width="2"/>
<path d="M314 193V249C314 250.105 314.895 251 316 251H456" stroke="#8CBBF9" stroke-width="2" stroke-linecap="round" stroke-linejoin="round"/>
<path d="M319 188V244C319 245.105 319.895 246 321 246H461" stroke="#8CBBF9" stroke-width="2" stroke-linecap="round" stroke-linejoin="round"/>
<path d="M217.087 211.023C216.52 211.023 216.033 210.95 215.625 210.804C215.218 210.661 214.878 210.473 214.606 210.237C214.338 210.005 214.124 209.757 213.965 209.491L214.899 208.835C215.006 208.974 215.14 209.134 215.302 209.312C215.465 209.495 215.687 209.652 215.968 209.785C216.253 209.921 216.626 209.989 217.087 209.989C217.703 209.989 218.212 209.839 218.613 209.541C219.014 209.243 219.215 208.776 219.215 208.139V206.588H219.115C219.029 206.727 218.907 206.9 218.747 207.105C218.592 207.307 218.366 207.488 218.071 207.647C217.78 207.803 217.385 207.881 216.888 207.881C216.272 207.881 215.718 207.735 215.228 207.443C214.74 207.152 214.354 206.727 214.069 206.17C213.787 205.614 213.647 204.937 213.647 204.142C213.647 203.36 213.784 202.679 214.059 202.099C214.334 201.515 214.717 201.065 215.208 200.746C215.698 200.425 216.265 200.264 216.908 200.264C217.405 200.264 217.8 200.347 218.091 200.513C218.386 200.675 218.612 200.861 218.767 201.07C218.926 201.275 219.049 201.444 219.135 201.577H219.255V200.364H220.388V208.219C220.388 208.875 220.239 209.409 219.941 209.82C219.646 210.234 219.248 210.537 218.747 210.729C218.25 210.925 217.697 211.023 217.087 211.023ZM217.047 206.827C217.518 206.827 217.916 206.719 218.24 206.504C218.565 206.288 218.812 205.978 218.981 205.574C219.15 205.17 219.235 204.686 219.235 204.122C219.235 203.572 219.152 203.086 218.986 202.665C218.82 202.245 218.575 201.915 218.25 201.676C217.925 201.437 217.524 201.318 217.047 201.318C216.55 201.318 216.136 201.444 215.804 201.696C215.476 201.948 215.229 202.286 215.064 202.71C214.901 203.134 214.82 203.605 214.82 204.122C214.82 204.652 214.903 205.121 215.068 205.529C215.238 205.933 215.486 206.252 215.814 206.484C216.146 206.712 216.557 206.827 217.047 206.827ZM222.555 208V197.818H225.995C226.791 197.818 227.444 197.954 227.954 198.226C228.464 198.494 228.842 198.864 229.088 199.335C229.333 199.805 229.455 200.34 229.455 200.94C229.455 201.54 229.333 202.072 229.088 202.536C228.842 203 228.466 203.365 227.959 203.63C227.452 203.892 226.804 204.023 226.015 204.023H223.231V202.909H225.975C226.519 202.909 226.956 202.83 227.288 202.67C227.623 202.511 227.865 202.286 228.014 201.994C228.166 201.699 228.242 201.348 228.242 200.94C228.242 200.533 228.166 200.176 228.014 199.871C227.861 199.567 227.618 199.331 227.283 199.165C226.948 198.996 226.506 198.912 225.955 198.912H223.788V208H222.555ZM227.348 203.426L229.853 208H228.421L225.955 203.426H227.348ZM231.37 208V197.818H234.81C235.609 197.818 236.262 197.962 236.769 198.251C237.28 198.536 237.657 198.922 237.903 199.409C238.148 199.896 238.271 200.44 238.271 201.04C238.271 201.64 238.148 202.185 237.903 202.675C237.661 203.166 237.286 203.557 236.779 203.849C236.272 204.137 235.622 204.281 234.83 204.281H232.364V203.188H234.79C235.337 203.188 235.776 203.093 236.108 202.904C236.439 202.715 236.68 202.46 236.829 202.138C236.981 201.814 237.057 201.447 237.057 201.04C237.057 200.632 236.981 200.268 236.829 199.946C236.68 199.625 236.438 199.373 236.103 199.19C235.768 199.005 235.324 198.912 234.771 198.912H232.603V208H231.37ZM248.31 201H247.077C247.004 200.645 246.876 200.334 246.694 200.065C246.515 199.797 246.296 199.571 246.038 199.389C245.783 199.204 245.499 199.064 245.188 198.972C244.876 198.879 244.551 198.832 244.213 198.832C243.597 198.832 243.038 198.988 242.538 199.3C242.041 199.611 241.645 200.07 241.35 200.677C241.058 201.283 240.912 202.027 240.912 202.909C240.912 203.791 241.058 204.535 241.35 205.141C241.645 205.748 242.041 206.207 242.538 206.518C243.038 206.83 243.597 206.986 244.213 206.986C244.551 206.986 244.876 206.939 245.188 206.847C245.499 206.754 245.783 206.616 246.038 206.434C246.296 206.248 246.515 206.021 246.694 205.753C246.876 205.481 247.004 205.17 247.077 204.818H248.31C248.217 205.339 248.048 205.804 247.803 206.215C247.558 206.626 247.253 206.976 246.888 207.264C246.523 207.549 246.114 207.766 245.66 207.915C245.209 208.065 244.727 208.139 244.213 208.139C243.345 208.139 242.573 207.927 241.897 207.503C241.22 207.079 240.688 206.475 240.301 205.693C239.913 204.911 239.719 203.983 239.719 202.909C239.719 201.835 239.913 200.907 240.301 200.125C240.688 199.343 241.22 198.74 241.897 198.315C242.573 197.891 243.345 197.679 244.213 197.679C244.727 197.679 245.209 197.754 245.66 197.903C246.114 198.052 246.523 198.271 246.888 198.559C247.253 198.844 247.558 199.192 247.803 199.603C248.048 200.011 248.217 200.476 248.31 201Z" fill="#141E35"/>
<path d="M419.039 167.023C418.472 167.023 417.985 166.95 417.577 166.804C417.169 166.661 416.829 166.473 416.558 166.237C416.289 166.005 416.075 165.757 415.916 165.491L416.851 164.835C416.957 164.974 417.091 165.134 417.254 165.312C417.416 165.495 417.638 165.652 417.92 165.785C418.205 165.921 418.578 165.989 419.039 165.989C419.655 165.989 420.164 165.839 420.565 165.541C420.966 165.243 421.166 164.776 421.166 164.139V162.588H421.067C420.981 162.727 420.858 162.9 420.699 163.105C420.543 163.307 420.318 163.488 420.023 163.647C419.731 163.803 419.337 163.881 418.84 163.881C418.223 163.881 417.67 163.735 417.179 163.443C416.692 163.152 416.306 162.727 416.021 162.17C415.739 161.614 415.598 160.937 415.598 160.142C415.598 159.36 415.736 158.679 416.011 158.099C416.286 157.515 416.669 157.065 417.159 156.746C417.65 156.425 418.217 156.264 418.86 156.264C419.357 156.264 419.751 156.347 420.043 156.513C420.338 156.675 420.563 156.861 420.719 157.07C420.878 157.275 421.001 157.444 421.087 157.577H421.206V156.364H422.34V164.219C422.34 164.875 422.191 165.409 421.892 165.82C421.597 166.234 421.2 166.537 420.699 166.729C420.202 166.925 419.648 167.023 419.039 167.023ZM418.999 162.827C419.469 162.827 419.867 162.719 420.192 162.504C420.517 162.288 420.764 161.978 420.933 161.574C421.102 161.17 421.186 160.686 421.186 160.122C421.186 159.572 421.103 159.086 420.938 158.665C420.772 158.245 420.527 157.915 420.202 157.676C419.877 157.437 419.476 157.318 418.999 157.318C418.502 157.318 418.087 157.444 417.756 157.696C417.428 157.948 417.181 158.286 417.015 158.71C416.853 159.134 416.771 159.605 416.771 160.122C416.771 160.652 416.854 161.121 417.02 161.529C417.189 161.933 417.438 162.252 417.766 162.484C418.097 162.712 418.508 162.827 418.999 162.827ZM427.45 164.159C426.76 164.159 426.155 163.995 425.635 163.667C425.118 163.339 424.714 162.88 424.422 162.29C424.134 161.7 423.989 161.01 423.989 160.222C423.989 159.426 424.134 158.732 424.422 158.138C424.714 157.545 425.118 157.085 425.635 156.756C426.155 156.428 426.76 156.264 427.45 156.264C428.139 156.264 428.742 156.428 429.259 156.756C429.78 157.085 430.184 157.545 430.472 158.138C430.764 158.732 430.91 159.426 430.91 160.222C430.91 161.01 430.764 161.7 430.472 162.29C430.184 162.88 429.78 163.339 429.259 163.667C428.742 163.995 428.139 164.159 427.45 164.159ZM427.45 163.105C427.973 163.105 428.404 162.971 428.742 162.702C429.08 162.434 429.331 162.081 429.493 161.643C429.655 161.206 429.737 160.732 429.737 160.222C429.737 159.711 429.655 159.236 429.493 158.795C429.331 158.354 429.08 157.998 428.742 157.726C428.404 157.454 427.973 157.318 427.45 157.318C426.926 157.318 426.495 157.454 426.157 157.726C425.819 157.998 425.569 158.354 425.406 158.795C425.244 159.236 425.163 159.711 425.163 160.222C425.163 160.732 425.244 161.206 425.406 161.643C425.569 162.081 425.819 162.434 426.157 162.702C426.495 162.971 426.926 163.105 427.45 163.105ZM436.936 159.088V160.182H432.481V159.088H436.936ZM438.86 166.864V156.364H439.994V157.577H440.133C440.219 157.444 440.339 157.275 440.491 157.07C440.647 156.861 440.869 156.675 441.157 156.513C441.449 156.347 441.843 156.264 442.34 156.264C442.983 156.264 443.55 156.425 444.041 156.746C444.531 157.068 444.914 157.524 445.189 158.114C445.464 158.704 445.602 159.4 445.602 160.202C445.602 161.01 445.464 161.711 445.189 162.305C444.914 162.895 444.533 163.352 444.046 163.677C443.559 163.998 442.997 164.159 442.36 164.159C441.87 164.159 441.477 164.078 441.182 163.915C440.887 163.75 440.66 163.562 440.501 163.354C440.342 163.142 440.219 162.966 440.133 162.827H440.034V166.864H438.86ZM440.014 160.182C440.014 160.759 440.098 161.267 440.267 161.708C440.436 162.146 440.683 162.489 441.008 162.737C441.333 162.982 441.731 163.105 442.201 163.105C442.692 163.105 443.101 162.976 443.429 162.717C443.761 162.455 444.009 162.104 444.175 161.663C444.344 161.219 444.429 160.725 444.429 160.182C444.429 159.645 444.346 159.161 444.18 158.73C444.018 158.296 443.771 157.953 443.439 157.701C443.111 157.446 442.698 157.318 442.201 157.318C441.724 157.318 441.323 157.439 440.998 157.681C440.673 157.92 440.428 158.254 440.262 158.685C440.097 159.113 440.014 159.612 440.014 160.182ZM448.425 153.818V164H447.252V153.818H448.425ZM455.246 160.878V156.364H456.42V164H455.246V162.707H455.167C454.988 163.095 454.709 163.425 454.332 163.697C453.954 163.965 453.476 164.099 452.9 164.099C452.423 164.099 451.998 163.995 451.627 163.786C451.256 163.574 450.964 163.256 450.752 162.832C450.54 162.404 450.434 161.866 450.434 161.216V156.364H451.607V161.136C451.607 161.693 451.763 162.137 452.074 162.469C452.389 162.8 452.79 162.966 453.278 162.966C453.569 162.966 453.866 162.891 454.168 162.742C454.472 162.593 454.728 162.364 454.933 162.056C455.142 161.748 455.246 161.355 455.246 160.878ZM461.511 167.023C460.944 167.023 460.457 166.95 460.049 166.804C459.642 166.661 459.302 166.473 459.03 166.237C458.762 166.005 458.548 165.757 458.389 165.491L459.324 164.835C459.43 164.974 459.564 165.134 459.726 165.312C459.889 165.495 460.111 165.652 460.392 165.785C460.677 165.921 461.05 165.989 461.511 165.989C462.127 165.989 462.636 165.839 463.037 165.541C463.438 165.243 463.639 164.776 463.639 164.139V162.588H463.539C463.453 162.727 463.331 162.9 463.172 163.105C463.016 163.307 462.79 163.488 462.495 163.647C462.204 163.803 461.809 163.881 461.312 163.881C460.696 163.881 460.142 163.735 459.652 163.443C459.164 163.152 458.778 162.727 458.493 162.17C458.212 161.614 458.071 160.937 458.071 160.142C458.071 159.36 458.208 158.679 458.483 158.099C458.758 157.515 459.141 157.065 459.632 156.746C460.122 156.425 460.689 156.264 461.332 156.264C461.829 156.264 462.224 156.347 462.515 156.513C462.81 156.675 463.036 156.861 463.191 157.07C463.351 157.275 463.473 157.444 463.559 157.577H463.679V156.364H464.812V164.219C464.812 164.875 464.663 165.409 464.365 165.82C464.07 166.234 463.672 166.537 463.172 166.729C462.674 166.925 462.121 167.023 461.511 167.023ZM461.471 162.827C461.942 162.827 462.34 162.719 462.664 162.504C462.989 162.288 463.236 161.978 463.405 161.574C463.574 161.17 463.659 160.686 463.659 160.122C463.659 159.572 463.576 159.086 463.41 158.665C463.244 158.245 462.999 157.915 462.674 157.676C462.35 157.437 461.949 157.318 461.471 157.318C460.974 157.318 460.56 157.444 460.228 157.696C459.9 157.948 459.653 158.286 459.488 158.71C459.325 159.134 459.244 159.605 459.244 160.122C459.244 160.652 459.327 161.121 459.493 161.529C459.662 161.933 459.91 162.252 460.238 162.484C460.57 162.712 460.981 162.827 461.471 162.827ZM466.82 164V156.364H467.993V164H466.82ZM467.416 155.091C467.188 155.091 466.991 155.013 466.825 154.857C466.662 154.701 466.581 154.514 466.581 154.295C466.581 154.077 466.662 153.889 466.825 153.734C466.991 153.578 467.188 153.5 467.416 153.5C467.645 153.5 467.841 153.578 468.003 153.734C468.169 153.889 468.252 154.077 468.252 154.295C468.252 154.514 468.169 154.701 468.003 154.857C467.841 155.013 467.645 155.091 467.416 155.091ZM471.175 159.406V164H470.002V156.364H471.136V157.557H471.235C471.414 157.169 471.686 156.857 472.05 156.622C472.415 156.384 472.886 156.264 473.462 156.264C473.979 156.264 474.432 156.37 474.82 156.582C475.207 156.791 475.509 157.109 475.724 157.537C475.94 157.961 476.048 158.498 476.048 159.148V164H474.874V159.227C474.874 158.627 474.719 158.16 474.407 157.825C474.095 157.487 473.668 157.318 473.124 157.318C472.75 157.318 472.415 157.399 472.12 157.562C471.828 157.724 471.598 157.961 471.429 158.273C471.26 158.584 471.175 158.962 471.175 159.406Z" fill="#141E35"/>
<path d="M633.964 216L631.638 208.364H632.871L634.521 214.21H634.601L636.232 208.364H637.484L639.095 214.19H639.175L640.825 208.364H642.058L639.732 216H638.578L636.908 210.134H636.788L635.118 216H633.964ZM646.411 216.159C645.676 216.159 645.041 215.997 644.507 215.672C643.977 215.344 643.568 214.886 643.279 214.3C642.994 213.71 642.852 213.024 642.852 212.241C642.852 211.459 642.994 210.77 643.279 210.173C643.568 209.573 643.969 209.106 644.482 208.771C644.999 208.433 645.603 208.264 646.292 208.264C646.69 208.264 647.082 208.33 647.47 208.463C647.858 208.596 648.211 208.811 648.529 209.109C648.847 209.404 649.101 209.795 649.29 210.283C649.479 210.77 649.573 211.37 649.573 212.082V212.58H643.687V211.565H648.38C648.38 211.134 648.294 210.75 648.122 210.412C647.953 210.074 647.711 209.807 647.396 209.612C647.084 209.416 646.716 209.318 646.292 209.318C645.825 209.318 645.42 209.434 645.079 209.666C644.741 209.895 644.481 210.193 644.298 210.561C644.116 210.929 644.025 211.323 644.025 211.744V212.42C644.025 212.997 644.124 213.486 644.323 213.887C644.525 214.285 644.805 214.588 645.163 214.797C645.521 215.002 645.937 215.105 646.411 215.105C646.72 215.105 646.998 215.062 647.247 214.976C647.498 214.886 647.716 214.754 647.898 214.578C648.08 214.399 648.221 214.177 648.32 213.912L649.454 214.23C649.335 214.615 649.134 214.953 648.852 215.244C648.571 215.533 648.223 215.758 647.808 215.92C647.394 216.08 646.928 216.159 646.411 216.159ZM651.377 216V205.818H652.55V209.577H652.65C652.736 209.444 652.855 209.275 653.008 209.07C653.164 208.861 653.386 208.675 653.674 208.513C653.966 208.347 654.36 208.264 654.857 208.264C655.5 208.264 656.067 208.425 656.558 208.746C657.048 209.068 657.431 209.524 657.706 210.114C657.981 210.704 658.119 211.4 658.119 212.202C658.119 213.01 657.981 213.711 657.706 214.305C657.431 214.895 657.05 215.352 656.563 215.677C656.075 215.998 655.513 216.159 654.877 216.159C654.387 216.159 653.994 216.078 653.699 215.915C653.404 215.75 653.177 215.562 653.018 215.354C652.859 215.142 652.736 214.966 652.65 214.827H652.511V216H651.377ZM652.531 212.182C652.531 212.759 652.615 213.267 652.784 213.708C652.953 214.146 653.2 214.489 653.525 214.737C653.85 214.982 654.247 215.105 654.718 215.105C655.209 215.105 655.618 214.976 655.946 214.717C656.277 214.455 656.526 214.104 656.692 213.663C656.861 213.219 656.945 212.725 656.945 212.182C656.945 211.645 656.862 211.161 656.697 210.73C656.534 210.296 656.287 209.953 655.956 209.701C655.628 209.446 655.215 209.318 654.718 209.318C654.241 209.318 653.84 209.439 653.515 209.681C653.19 209.92 652.945 210.254 652.779 210.685C652.613 211.113 652.531 211.612 652.531 212.182Z" fill="#141E35"/>
<path fill-rule="evenodd" clip-rule="evenodd" d="M282.356 435.672H149V484.11C149 489.255 178.853 493.426 215.678 493.426C252.503 493.426 282.356 489.255 282.356 484.11V435.672Z" fill="#FEDA8A"/>
<path d="M149 435.672V434.672H148V435.672H149ZM282.356 435.672H283.356V434.672H282.356V435.672ZM149 436.672H282.356V434.672H149V436.672ZM150 484.11V435.672H148V484.11H150ZM215.678 492.426C197.297 492.426 180.676 491.384 168.668 489.707C162.657 488.867 157.843 487.873 154.554 486.787C152.902 486.241 151.694 485.691 150.918 485.162C150.102 484.605 150 484.238 150 484.11H148C148 485.269 148.831 486.158 149.791 486.814C150.792 487.497 152.204 488.117 153.926 488.686C157.385 489.828 162.336 490.842 168.391 491.688C180.516 493.381 197.234 494.426 215.678 494.426V492.426ZM281.356 484.11C281.356 484.238 281.254 484.605 280.438 485.162C279.662 485.691 278.454 486.241 276.803 486.787C273.513 487.873 268.7 488.867 262.688 489.707C250.68 491.384 234.059 492.426 215.678 492.426V494.426C234.122 494.426 250.84 493.381 262.965 491.688C269.02 490.842 273.971 489.828 277.43 488.686C279.152 488.117 280.564 487.497 281.565 486.814C282.525 486.158 283.356 485.269 283.356 484.11H281.356ZM281.356 435.672V484.11H283.356V435.672H281.356Z" fill="#FDB515"/>
<ellipse cx="215.678" cy="434.741" rx="66.6781" ry="9.31507" fill="#FEDA8A" stroke="#FDB515" stroke-width="2"/>
<path d="M167.946 465.295V464.045H176.673V465.295H173.014V475.682H171.605V465.295H167.946ZM178.506 475.682V466.955H179.847V475.682H178.506ZM179.188 465.5C178.927 465.5 178.701 465.411 178.512 465.233C178.326 465.055 178.234 464.841 178.234 464.591C178.234 464.341 178.326 464.127 178.512 463.949C178.701 463.771 178.927 463.682 179.188 463.682C179.449 463.682 179.673 463.771 179.859 463.949C180.048 464.127 180.143 464.341 180.143 464.591C180.143 464.841 180.048 465.055 179.859 465.233C179.673 465.411 179.449 465.5 179.188 465.5ZM182.143 475.682V466.955H183.439V468.318H183.552C183.734 467.852 184.028 467.491 184.433 467.233C184.838 466.972 185.325 466.841 185.893 466.841C186.469 466.841 186.948 466.972 187.331 467.233C187.717 467.491 188.018 467.852 188.234 468.318H188.325C188.548 467.867 188.884 467.509 189.331 467.244C189.778 466.975 190.314 466.841 190.939 466.841C191.719 466.841 192.357 467.085 192.853 467.574C193.35 468.059 193.598 468.814 193.598 469.841V475.682H192.257V469.841C192.257 469.197 192.081 468.737 191.728 468.46C191.376 468.184 190.961 468.045 190.484 468.045C189.87 468.045 189.395 468.231 189.058 468.602C188.721 468.97 188.552 469.436 188.552 470V475.682H187.189V469.705C187.189 469.208 187.028 468.809 186.706 468.506C186.384 468.199 185.969 468.045 185.461 468.045C185.113 468.045 184.787 468.138 184.484 468.324C184.185 468.509 183.942 468.767 183.757 469.097C183.575 469.422 183.484 469.799 183.484 470.227V475.682H182.143ZM199.549 475.864C198.708 475.864 197.982 475.678 197.372 475.307C196.766 474.932 196.299 474.409 195.969 473.739C195.643 473.064 195.48 472.28 195.48 471.386C195.48 470.492 195.643 469.705 195.969 469.023C196.299 468.337 196.757 467.803 197.344 467.42C197.935 467.034 198.624 466.841 199.412 466.841C199.867 466.841 200.316 466.917 200.759 467.068C201.202 467.22 201.605 467.466 201.969 467.807C202.333 468.144 202.622 468.591 202.838 469.148C203.054 469.705 203.162 470.39 203.162 471.205V471.773H196.435V470.614H201.799C201.799 470.121 201.7 469.682 201.503 469.295C201.31 468.909 201.033 468.604 200.674 468.381C200.317 468.157 199.897 468.045 199.412 468.045C198.878 468.045 198.416 468.178 198.026 468.443C197.639 468.705 197.342 469.045 197.134 469.466C196.925 469.886 196.821 470.337 196.821 470.818V471.591C196.821 472.25 196.935 472.809 197.162 473.267C197.393 473.722 197.713 474.068 198.122 474.307C198.531 474.542 199.007 474.659 199.549 474.659C199.901 474.659 200.219 474.61 200.503 474.511C200.791 474.409 201.039 474.258 201.247 474.057C201.456 473.852 201.617 473.599 201.73 473.295L203.026 473.659C202.889 474.099 202.66 474.485 202.338 474.818C202.016 475.148 201.619 475.405 201.145 475.591C200.672 475.773 200.139 475.864 199.549 475.864ZM211.224 468.909L210.019 469.25C209.943 469.049 209.832 468.854 209.684 468.665C209.54 468.472 209.343 468.313 209.093 468.188C208.843 468.063 208.523 468 208.133 468C207.599 468 207.154 468.123 206.798 468.369C206.445 468.612 206.269 468.92 206.269 469.295C206.269 469.629 206.39 469.892 206.633 470.085C206.875 470.278 207.254 470.439 207.769 470.568L209.065 470.886C209.845 471.076 210.426 471.366 210.809 471.756C211.192 472.142 211.383 472.64 211.383 473.25C211.383 473.75 211.239 474.197 210.951 474.591C210.667 474.985 210.269 475.295 209.758 475.523C209.246 475.75 208.652 475.864 207.974 475.864C207.084 475.864 206.347 475.67 205.764 475.284C205.18 474.898 204.811 474.333 204.656 473.591L205.928 473.273C206.049 473.742 206.279 474.095 206.616 474.33C206.957 474.564 207.402 474.682 207.951 474.682C208.576 474.682 209.072 474.549 209.44 474.284C209.811 474.015 209.996 473.693 209.996 473.318C209.996 473.015 209.89 472.761 209.678 472.557C209.466 472.349 209.14 472.193 208.701 472.091L207.246 471.75C206.447 471.561 205.86 471.267 205.485 470.869C205.114 470.468 204.928 469.966 204.928 469.364C204.928 468.871 205.067 468.436 205.343 468.057C205.623 467.678 206.004 467.381 206.485 467.165C206.97 466.949 207.519 466.841 208.133 466.841C208.996 466.841 209.674 467.03 210.167 467.409C210.663 467.788 211.015 468.288 211.224 468.909ZM216.787 475.864C215.969 475.864 215.264 475.67 214.673 475.284C214.082 474.898 213.628 474.366 213.309 473.688C212.991 473.009 212.832 472.235 212.832 471.364C212.832 470.477 212.995 469.695 213.321 469.017C213.65 468.335 214.109 467.803 214.696 467.42C215.287 467.034 215.976 466.841 216.764 466.841C217.378 466.841 217.931 466.955 218.423 467.182C218.916 467.409 219.319 467.727 219.633 468.136C219.948 468.545 220.143 469.023 220.219 469.568H218.878C218.775 469.17 218.548 468.818 218.196 468.511C217.847 468.201 217.378 468.045 216.787 468.045C216.264 468.045 215.806 468.182 215.412 468.455C215.022 468.724 214.717 469.104 214.497 469.597C214.281 470.085 214.173 470.659 214.173 471.318C214.173 471.992 214.279 472.58 214.491 473.08C214.707 473.58 215.01 473.968 215.4 474.244C215.794 474.521 216.256 474.659 216.787 474.659C217.135 474.659 217.452 474.599 217.736 474.477C218.02 474.356 218.26 474.182 218.457 473.955C218.654 473.727 218.794 473.455 218.878 473.136H220.219C220.143 473.652 219.955 474.116 219.656 474.528C219.361 474.938 218.969 475.263 218.48 475.506C217.995 475.744 217.431 475.864 216.787 475.864ZM224.587 475.886C224.034 475.886 223.532 475.782 223.081 475.574C222.631 475.362 222.273 475.057 222.007 474.659C221.742 474.258 221.61 473.773 221.61 473.205C221.61 472.705 221.708 472.299 221.905 471.989C222.102 471.674 222.365 471.428 222.695 471.25C223.024 471.072 223.388 470.939 223.786 470.852C224.187 470.761 224.591 470.689 224.996 470.636C225.526 470.568 225.956 470.517 226.286 470.483C226.619 470.445 226.862 470.383 227.013 470.295C227.168 470.208 227.246 470.057 227.246 469.841V469.795C227.246 469.235 227.093 468.799 226.786 468.489C226.483 468.178 226.023 468.023 225.405 468.023C224.765 468.023 224.263 468.163 223.899 468.443C223.536 468.724 223.28 469.023 223.132 469.341L221.86 468.886C222.087 468.356 222.39 467.943 222.769 467.648C223.151 467.349 223.568 467.14 224.019 467.023C224.473 466.902 224.92 466.841 225.36 466.841C225.64 466.841 225.962 466.875 226.326 466.943C226.693 467.008 227.047 467.142 227.388 467.347C227.733 467.551 228.019 467.86 228.246 468.273C228.473 468.686 228.587 469.239 228.587 469.932V475.682H227.246V474.5H227.178C227.087 474.689 226.935 474.892 226.723 475.108C226.511 475.324 226.229 475.508 225.877 475.659C225.524 475.811 225.095 475.886 224.587 475.886ZM224.792 474.682C225.322 474.682 225.769 474.578 226.132 474.369C226.5 474.161 226.776 473.892 226.962 473.563C227.151 473.233 227.246 472.886 227.246 472.523V471.295C227.189 471.364 227.064 471.426 226.871 471.483C226.682 471.536 226.462 471.583 226.212 471.625C225.966 471.663 225.725 471.697 225.49 471.727C225.259 471.754 225.072 471.777 224.928 471.795C224.579 471.841 224.254 471.915 223.951 472.017C223.651 472.116 223.409 472.265 223.223 472.466C223.042 472.663 222.951 472.932 222.951 473.273C222.951 473.739 223.123 474.091 223.468 474.33C223.816 474.564 224.257 474.682 224.792 474.682ZM232.215 464.045V475.682H230.874V464.045H232.215ZM238.17 475.864C237.329 475.864 236.604 475.678 235.994 475.307C235.388 474.932 234.92 474.409 234.591 473.739C234.265 473.064 234.102 472.28 234.102 471.386C234.102 470.492 234.265 469.705 234.591 469.023C234.92 468.337 235.379 467.803 235.966 467.42C236.557 467.034 237.246 466.841 238.034 466.841C238.489 466.841 238.937 466.917 239.381 467.068C239.824 467.22 240.227 467.466 240.591 467.807C240.954 468.144 241.244 468.591 241.46 469.148C241.676 469.705 241.784 470.39 241.784 471.205V471.773H235.057V470.614H240.42C240.42 470.121 240.322 469.682 240.125 469.295C239.932 468.909 239.655 468.604 239.295 468.381C238.939 468.157 238.519 468.045 238.034 468.045C237.5 468.045 237.038 468.178 236.648 468.443C236.261 468.705 235.964 469.045 235.756 469.466C235.547 469.886 235.443 470.337 235.443 470.818V471.591C235.443 472.25 235.557 472.809 235.784 473.267C236.015 473.722 236.335 474.068 236.744 474.307C237.153 474.542 237.629 474.659 238.17 474.659C238.523 474.659 238.841 474.61 239.125 474.511C239.413 474.409 239.661 474.258 239.869 474.057C240.078 473.852 240.239 473.599 240.352 473.295L241.648 473.659C241.511 474.099 241.282 474.485 240.96 474.818C240.638 475.148 240.24 475.405 239.767 475.591C239.293 475.773 238.761 475.864 238.17 475.864ZM247.437 475.682H243.846V464.045H247.596C248.724 464.045 249.69 464.278 250.493 464.744C251.296 465.206 251.912 465.871 252.34 466.739C252.768 467.602 252.982 468.636 252.982 469.841C252.982 471.053 252.766 472.097 252.334 472.972C251.902 473.843 251.274 474.513 250.448 474.983C249.622 475.449 248.618 475.682 247.437 475.682ZM245.255 474.432H247.346C248.308 474.432 249.105 474.246 249.738 473.875C250.37 473.504 250.842 472.975 251.152 472.29C251.463 471.604 251.618 470.788 251.618 469.841C251.618 468.902 251.465 468.093 251.158 467.415C250.851 466.733 250.393 466.21 249.783 465.847C249.173 465.479 248.414 465.295 247.505 465.295H245.255V474.432ZM255.186 475.682V464.045H259.254C260.064 464.045 260.733 464.186 261.259 464.466C261.786 464.742 262.178 465.116 262.436 465.585C262.693 466.051 262.822 466.568 262.822 467.136C262.822 467.636 262.733 468.049 262.555 468.375C262.381 468.701 262.15 468.958 261.862 469.148C261.578 469.337 261.269 469.477 260.936 469.568V469.682C261.292 469.705 261.65 469.83 262.009 470.057C262.369 470.284 262.67 470.61 262.913 471.034C263.155 471.458 263.277 471.977 263.277 472.591C263.277 473.174 263.144 473.699 262.879 474.165C262.614 474.631 262.195 475 261.623 475.273C261.051 475.545 260.307 475.682 259.39 475.682H255.186ZM256.595 474.432H259.39C260.311 474.432 260.964 474.254 261.35 473.898C261.741 473.538 261.936 473.102 261.936 472.591C261.936 472.197 261.835 471.833 261.634 471.5C261.434 471.163 261.148 470.894 260.777 470.693C260.405 470.489 259.966 470.386 259.458 470.386H256.595V474.432ZM256.595 469.159H259.208C259.633 469.159 260.015 469.076 260.356 468.909C260.701 468.742 260.973 468.508 261.174 468.205C261.379 467.902 261.481 467.545 261.481 467.136C261.481 466.625 261.303 466.191 260.947 465.835C260.591 465.475 260.027 465.295 259.254 465.295H256.595V469.159Z" fill="black"/>
<path d="M290.02 504.851C301.055 504.851 310 495.906 310 484.871C310 473.836 301.055 464.891 290.02 464.891C278.985 464.891 270.04 473.836 270.04 484.871C270.04 495.906 278.985 504.851 290.02 504.851Z" fill="#F9F0D1"/>
<path d="M290.02 498.239C297.416 498.239 303.412 492.242 303.412 484.843C303.412 477.444 297.416 471.447 290.02 471.447C282.624 471.447 276.629 477.444 276.629 484.843C276.629 492.242 282.624 498.239 290.02 498.239Z" fill="#FDB515"/>
<path d="M298.883 483.527C299.688 481.568 299.102 479.47 297.574 478.843C296.046 478.215 294.155 479.294 293.35 481.254C292.545 483.213 293.131 485.311 294.659 485.938C296.187 486.566 298.078 485.486 298.883 483.527Z" fill="white"/>
<path d="M290.053 501.45C292.174 501.45 293.893 499.588 293.893 497.292C293.893 494.996 292.174 493.135 290.053 493.135C287.932 493.135 286.213 494.996 286.213 497.292C286.213 499.588 287.932 501.45 290.053 501.45Z" fill="white"/>
<path d="M285.51 485.936C287.038 485.308 287.625 483.211 286.82 481.251C286.015 479.292 284.123 478.212 282.595 478.84C281.067 479.468 280.481 481.565 281.286 483.524C282.091 485.484 283.982 486.563 285.51 485.936Z" fill="white"/>
<path d="M296.828 497.731C300.971 495.51 303.911 491.329 304.401 486.425L306.72 489.089C305.427 494.348 301.713 498.659 296.833 500.773C296.879 500.353 296.903 499.882 296.903 499.345C296.898 498.804 296.875 498.263 296.828 497.731ZM285.349 498.683C286.81 499.177 288.368 499.443 289.997 499.443C291.695 499.443 293.319 499.154 294.836 498.617C294.518 499.882 294.024 500.988 293.394 501.855C292.297 502.075 291.163 502.191 290.001 502.191C288.91 502.191 287.846 502.089 286.81 501.897C286.171 501.034 285.671 499.933 285.349 498.683ZM283.245 497.773C279.036 495.552 276.055 491.315 275.583 486.345L273.32 489.29C274.664 494.492 278.383 498.739 283.245 500.815C283.198 500.386 283.175 499.9 283.175 499.35C283.175 498.818 283.198 498.291 283.245 497.773ZM301.62 476.332L303.262 473.98C302.096 472.576 300.71 471.353 299.156 470.378L296.385 471.969C298.456 472.987 300.253 474.494 301.62 476.332ZM281.024 470.257C279.4 471.251 277.949 472.506 276.741 473.966L278.593 476.043C279.937 474.326 281.663 472.921 283.642 471.951L281.024 470.257Z" fill="#333333"/>
<path d="M280.469 484.857C280.469 480.518 283.366 476.855 287.332 475.693C287.51 475.194 287.734 474.76 287.986 474.405C283.077 475.352 279.372 479.673 279.372 484.857C279.372 488.529 281.229 491.767 284.057 493.681C284.183 493.317 284.318 492.967 284.467 492.626C282.046 490.895 280.469 488.058 280.469 484.857Z" fill="#333333"/>
<path d="M282.349 481.665L283.156 481.875C283.884 480.196 285.205 478.833 286.861 478.063C286.885 477.741 286.917 477.424 286.969 477.121C284.883 477.947 283.212 479.594 282.349 481.665Z" fill="#333333"/>
<path d="M282.638 486.037H281.808C282.13 488.259 283.324 490.195 285.037 491.483C285.177 491.24 285.321 491.007 285.475 490.783C283.992 489.644 282.951 487.965 282.638 486.037Z" fill="#333333"/>
<path d="M296.898 481.903L297.701 481.693C296.739 479.356 294.742 477.55 292.279 476.855C292.339 477.144 292.391 477.447 292.428 477.765C294.444 478.446 296.067 479.962 296.898 481.903Z" fill="#333333"/>
<path d="M298.33 483.812L297.462 482.916L294.611 483.373L294.173 484.684L295.484 485.562L297.892 484.684L298.33 483.812Z" fill="#333333"/>
<path d="M281.827 483.812L282.69 482.916L285.545 483.373L285.979 484.684L284.668 485.562L282.265 484.684L281.827 483.812Z" fill="#333333"/>
<path d="M297.924 487.372C298.06 486.943 298.167 486.495 298.232 486.037H297.402C297.36 486.294 297.304 486.541 297.238 486.789C297.481 486.985 297.71 487.176 297.924 487.372Z" fill="#333333"/>
<path d="M295.293 490.144C295.078 490.354 294.854 490.559 294.616 490.741C294.77 490.965 294.92 491.198 295.06 491.441C295.428 491.156 295.773 490.844 296.091 490.503C295.829 490.396 295.563 490.274 295.293 490.144Z" fill="#333333"/>
<path d="M299.572 484.857C299.572 486.103 299.329 487.288 298.9 488.38C299.222 488.763 299.464 489.131 299.623 489.462C300.295 488.067 300.673 486.509 300.673 484.857C300.673 479.36 296.511 474.839 291.163 474.27C291.429 474.601 291.667 475.012 291.863 475.483C296.254 476.341 299.572 480.21 299.572 484.857Z" fill="#333333"/>
<path d="M297.383 490.937C296.875 491.553 296.287 492.108 295.643 492.579C295.792 492.915 295.932 493.27 296.053 493.634C297.052 492.948 297.925 492.089 298.638 491.114C298.279 491.119 297.855 491.058 297.383 490.937Z" fill="#333333"/>
<path d="M290.935 483.555C290.925 483.555 290.921 483.551 290.916 483.546L290.02 474.195H289.185L288.42 483.611H288.424C288.424 483.63 288.42 483.648 288.42 483.667C288.424 483.826 288.438 483.975 288.466 484.12C288.48 484.278 288.527 484.442 288.602 484.605C288.76 485.016 289.017 485.324 289.32 485.468C289.39 485.524 289.465 485.576 289.54 485.627C289.554 485.636 289.572 485.646 289.586 485.655V485.66L298.881 490.769L299.366 490.092L290.935 483.555Z" fill="#333333"/>
<path d="M292.12 496.354C291.397 496.354 290.785 495.86 290.608 495.192L294.047 493.876L293.226 491.833L290.02 493.13L286.81 491.837L285.993 493.876L289.399 495.22C289.213 495.874 288.611 496.354 287.897 496.354C287.85 496.354 287.799 496.349 287.752 496.345L287.057 497.32C287.318 497.409 287.598 497.455 287.892 497.455C288.756 497.455 289.521 497.045 290.006 496.405C290.491 497.04 291.257 497.455 292.12 497.455C292.446 497.455 292.754 497.395 293.044 497.287L292.362 496.335C292.283 496.349 292.204 496.354 292.12 496.354Z" fill="#333333"/>
<path d="M300.719 476.785L299.604 478.054C300.967 479.972 301.764 482.314 301.764 484.843C301.764 488.986 299.618 492.631 296.375 494.721C296.52 495.272 296.636 495.846 296.725 496.438C300.719 494.119 303.407 489.794 303.407 484.843C303.416 481.819 302.408 479.029 300.719 476.785Z" fill="#333333"/>
<path d="M278.276 484.843C278.276 482.319 279.074 479.981 280.431 478.063L279.316 476.794C277.627 479.034 276.629 481.824 276.629 484.843C276.629 489.826 279.349 494.175 283.39 496.48C283.478 495.888 283.59 495.314 283.735 494.768C280.45 492.682 278.276 489.019 278.276 484.843Z" fill="#333333"/>
<path d="M290.02 471.447C287.962 471.447 286.012 471.913 284.271 472.739L285.093 474.176C286.59 473.481 288.261 473.094 290.02 473.094C291.774 473.094 293.44 473.481 294.938 474.172L295.759 472.735C294.019 471.913 292.073 471.447 290.02 471.447Z" fill="#333333"/>
<rect x="291" y="48" width="199" height="232" stroke="#898E9A" stroke-width="2"/>
<g clip-path="url(#clip0_1514_975)">
<mask id="path-48-inside-1_1514_975" fill="white">
<path d="M646.221 190.974C646.396 190.974 646.568 190.96 646.741 190.952L647.179 190.925L647.58 190.896L648.084 190.853C648.181 190.844 648.279 190.833 648.376 190.823C649.314 190.726 650.241 190.588 651.158 190.41L651.353 190.372C651.541 190.335 651.723 190.295 651.915 190.248L652.219 190.18C652.379 190.143 652.54 190.106 652.7 190.067C652.861 190.027 653.013 189.988 653.17 189.943L653.492 189.858C658.84 188.392 663.713 185.552 667.628 181.62C668.069 181.179 668.492 180.725 668.906 180.261L668.958 180.201C669.142 179.994 669.323 179.784 669.501 179.573L669.546 179.521C674.361 173.766 676.999 166.499 677 158.992C677 151.485 674.362 144.217 669.547 138.461C669.534 138.447 669.522 138.433 669.511 138.418C669.329 138.203 669.14 137.989 668.956 137.779C668.943 137.762 668.928 137.747 668.914 137.73C668.501 137.267 668.075 136.812 667.633 136.37C663.716 132.438 658.842 129.599 653.492 128.134L653.178 128.051C653.018 128.009 652.859 127.968 652.7 127.927C652.542 127.888 652.383 127.851 652.225 127.815C652.121 127.791 652.017 127.766 651.914 127.744C651.728 127.703 651.543 127.664 651.357 127.627L651.155 127.588C650.434 127.448 649.707 127.332 648.973 127.241H648.964C648.77 127.218 648.575 127.197 648.38 127.176L648.085 127.146C647.917 127.13 647.75 127.115 647.582 127.103C647.44 127.088 647.317 127.088 647.177 127.075C647.038 127.063 646.887 127.056 646.741 127.048L646.221 127.026C646.107 127.026 645.994 127.016 645.879 127.014C645.586 127.005 645.293 127 645 127C644.707 127 644.413 127.005 644.119 127.014C644.006 127.014 643.892 127.021 643.78 127.026C643.605 127.033 643.431 127.04 643.257 127.048C643.113 127.056 642.968 127.066 642.823 127.075L642.418 127.104C642.251 127.117 642.084 127.131 641.924 127.147L641.621 127.178C641.428 127.198 641.237 127.218 641.046 127.241H641.012C640.292 127.33 639.577 127.443 638.867 127.581L638.643 127.624C638.463 127.661 638.284 127.698 638.104 127.738L637.77 127.813C637.618 127.848 637.467 127.884 637.316 127.921C637.144 127.964 636.973 128.008 636.801 128.053L636.523 128.126C631.167 129.591 626.288 132.434 622.37 136.372C621.927 136.815 621.505 137.27 621.087 137.732L621.046 137.778C620.857 137.992 620.669 138.208 620.487 138.426C620.478 138.437 620.468 138.447 620.459 138.456C615.637 144.215 612.994 151.489 612.994 159.003C612.994 166.517 615.637 173.791 620.459 179.55C620.464 179.555 620.469 179.561 620.473 179.567C620.662 179.79 620.853 180.011 621.048 180.231L621.076 180.262C621.487 180.727 621.917 181.183 622.364 181.629C626.281 185.564 631.157 188.405 636.509 189.87L636.787 189.943L637.304 190.075C637.453 190.112 637.605 190.147 637.756 190.182L638.091 190.257C638.271 190.297 638.45 190.335 638.629 190.371L638.855 190.414C639.562 190.551 640.274 190.664 640.992 190.754H641.032C641.223 190.777 641.415 190.797 641.606 190.817C641.708 190.828 641.809 190.839 641.911 190.848C642.077 190.864 642.242 190.878 642.405 190.891L642.813 190.921L643.246 190.947L643.769 190.969L644.108 190.983C644.401 190.99 644.695 190.995 644.989 190.995C645.283 190.995 645.576 190.995 645.868 190.983L646.21 190.969L646.221 190.974ZM614.909 159.944H630.117C630.156 163.436 630.47 166.92 631.056 170.363C630.884 170.419 630.712 170.474 630.541 170.534C626.606 171.894 623.081 173.826 620.274 176.154C616.95 171.387 615.085 165.754 614.909 159.944ZM620.27 141.843C623.078 144.17 626.602 146.104 630.537 147.463C630.709 147.522 630.88 147.578 631.052 147.633C630.465 151.076 630.151 154.56 630.113 158.052H614.909C615.085 152.243 616.948 146.61 620.27 141.843ZM639.178 129.46C637.348 131.096 635.683 133.516 634.277 136.653C633.072 139.334 632.112 142.41 631.416 145.744C627.572 144.449 624.136 142.612 621.403 140.324C625.85 134.703 632.152 130.852 639.178 129.46ZM675.093 158.054H659.88C659.841 154.562 659.528 151.078 658.942 147.636C659.115 147.579 659.289 147.523 659.461 147.464C663.395 146.104 666.92 144.172 669.728 141.843C673.052 146.609 674.917 152.242 675.093 158.052V158.054ZM669.727 176.157C666.919 173.828 663.394 171.895 659.459 170.537C659.288 170.478 659.114 170.422 658.942 170.364C659.528 166.922 659.841 163.439 659.879 159.948H675.092C674.916 165.758 673.052 171.391 669.727 176.157ZM636.001 180.572C634.83 177.964 633.901 174.961 633.229 171.695C636.756 170.706 640.393 170.17 644.054 170.099V189.024C641.09 188.489 638.203 185.478 636.001 180.575V180.572ZM645.945 159.948H657.99C657.952 163.252 657.661 166.549 657.119 169.809C653.478 168.803 649.723 168.263 645.946 168.202L645.945 159.948ZM645.945 158.055V149.798C649.722 149.737 653.477 149.197 657.119 148.191C657.659 151.451 657.948 154.748 657.984 158.052L645.945 158.055ZM645.945 147.904V128.98C648.903 129.515 651.794 132.526 653.996 137.429C655.167 140.038 656.095 143.042 656.767 146.308C653.241 147.295 649.605 147.832 645.945 147.904ZM644.054 147.904C640.393 147.832 636.755 147.295 633.229 146.307C633.899 143.04 634.835 140.038 636.001 137.429C638.203 132.526 641.095 129.517 644.054 128.979V147.904ZM644.054 149.798V158.055H632.003C632.038 154.75 632.327 151.453 632.867 148.192C636.513 149.199 640.272 149.739 644.054 149.798ZM644.054 159.948V168.203C640.276 168.264 636.52 168.804 632.877 169.81C632.337 166.55 632.048 163.253 632.013 159.948H644.054ZM645.945 170.099C649.605 170.17 653.242 170.706 656.767 171.695C656.098 174.96 655.162 177.964 653.994 180.572C651.792 185.475 648.903 188.484 645.945 189.022V170.099ZM655.72 181.349C656.924 178.666 657.886 175.591 658.58 172.256C662.427 173.551 665.867 175.39 668.6 177.677C664.149 183.298 657.845 187.15 650.816 188.542C652.646 186.907 654.311 184.482 655.717 181.349H655.72ZM668.6 140.324C665.864 142.612 662.425 144.45 658.581 145.745C657.886 142.408 656.925 139.335 655.721 136.653C654.313 133.519 652.65 131.096 650.818 129.459C657.848 130.85 664.152 134.702 668.602 140.324H668.6ZM631.416 172.257C632.112 175.595 633.072 178.666 634.277 181.349C635.683 184.481 637.347 186.906 639.178 188.541C632.152 187.149 625.85 183.297 621.403 177.677C624.136 175.39 627.578 173.551 631.416 172.257Z"/>
</mask>
<path d="M646.221 190.974C646.396 190.974 646.568 190.96 646.741 190.952L647.179 190.925L647.58 190.896L648.084 190.853C648.181 190.844 648.279 190.833 648.376 190.823C649.314 190.726 650.241 190.588 651.158 190.41L651.353 190.372C651.541 190.335 651.723 190.295 651.915 190.248L652.219 190.18C652.379 190.143 652.54 190.106 652.7 190.067C652.861 190.027 653.013 189.988 653.17 189.943L653.492 189.858C658.84 188.392 663.713 185.552 667.628 181.62C668.069 181.179 668.492 180.725 668.906 180.261L668.958 180.201C669.142 179.994 669.323 179.784 669.501 179.573L669.546 179.521C674.361 173.766 676.999 166.499 677 158.992C677 151.485 674.362 144.217 669.547 138.461C669.534 138.447 669.522 138.433 669.511 138.418C669.329 138.203 669.14 137.989 668.956 137.779C668.943 137.762 668.928 137.747 668.914 137.73C668.501 137.267 668.075 136.812 667.633 136.37C663.716 132.438 658.842 129.599 653.492 128.134L653.178 128.051C653.018 128.009 652.859 127.968 652.7 127.927C652.542 127.888 652.383 127.851 652.225 127.815C652.121 127.791 652.017 127.766 651.914 127.744C651.728 127.703 651.543 127.664 651.357 127.627L651.155 127.588C650.434 127.448 649.707 127.332 648.973 127.241H648.964C648.77 127.218 648.575 127.197 648.38 127.176L648.085 127.146C647.917 127.13 647.75 127.115 647.582 127.103C647.44 127.088 647.317 127.088 647.177 127.075C647.038 127.063 646.887 127.056 646.741 127.048L646.221 127.026C646.107 127.026 645.994 127.016 645.879 127.014C645.586 127.005 645.293 127 645 127C644.707 127 644.413 127.005 644.119 127.014C644.006 127.014 643.892 127.021 643.78 127.026C643.605 127.033 643.431 127.04 643.257 127.048C643.113 127.056 642.968 127.066 642.823 127.075L642.418 127.104C642.251 127.117 642.084 127.131 641.924 127.147L641.621 127.178C641.428 127.198 641.237 127.218 641.046 127.241H641.012C640.292 127.33 639.577 127.443 638.867 127.581L638.643 127.624C638.463 127.661 638.284 127.698 638.104 127.738L637.77 127.813C637.618 127.848 637.467 127.884 637.316 127.921C637.144 127.964 636.973 128.008 636.801 128.053L636.523 128.126C631.167 129.591 626.288 132.434 622.37 136.372C621.927 136.815 621.505 137.27 621.087 137.732L621.046 137.778C620.857 137.992 620.669 138.208 620.487 138.426C620.478 138.437 620.468 138.447 620.459 138.456C615.637 144.215 612.994 151.489 612.994 159.003C612.994 166.517 615.637 173.791 620.459 179.55C620.464 179.555 620.469 179.561 620.473 179.567C620.662 179.79 620.853 180.011 621.048 180.231L621.076 180.262C621.487 180.727 621.917 181.183 622.364 181.629C626.281 185.564 631.157 188.405 636.509 189.87L636.787 189.943L637.304 190.075C637.453 190.112 637.605 190.147 637.756 190.182L638.091 190.257C638.271 190.297 638.45 190.335 638.629 190.371L638.855 190.414C639.562 190.551 640.274 190.664 640.992 190.754H641.032C641.223 190.777 641.415 190.797 641.606 190.817C641.708 190.828 641.809 190.839 641.911 190.848C642.077 190.864 642.242 190.878 642.405 190.891L642.813 190.921L643.246 190.947L643.769 190.969L644.108 190.983C644.401 190.99 644.695 190.995 644.989 190.995C645.283 190.995 645.576 190.995 645.868 190.983L646.21 190.969L646.221 190.974ZM614.909 159.944H630.117C630.156 163.436 630.47 166.92 631.056 170.363C630.884 170.419 630.712 170.474 630.541 170.534C626.606 171.894 623.081 173.826 620.274 176.154C616.95 171.387 615.085 165.754 614.909 159.944ZM620.27 141.843C623.078 144.17 626.602 146.104 630.537 147.463C630.709 147.522 630.88 147.578 631.052 147.633C630.465 151.076 630.151 154.56 630.113 158.052H614.909C615.085 152.243 616.948 146.61 620.27 141.843ZM639.178 129.46C637.348 131.096 635.683 133.516 634.277 136.653C633.072 139.334 632.112 142.41 631.416 145.744C627.572 144.449 624.136 142.612 621.403 140.324C625.85 134.703 632.152 130.852 639.178 129.46ZM675.093 158.054H659.88C659.841 154.562 659.528 151.078 658.942 147.636C659.115 147.579 659.289 147.523 659.461 147.464C663.395 146.104 666.92 144.172 669.728 141.843C673.052 146.609 674.917 152.242 675.093 158.052V158.054ZM669.727 176.157C666.919 173.828 663.394 171.895 659.459 170.537C659.288 170.478 659.114 170.422 658.942 170.364C659.528 166.922 659.841 163.439 659.879 159.948H675.092C674.916 165.758 673.052 171.391 669.727 176.157ZM636.001 180.572C634.83 177.964 633.901 174.961 633.229 171.695C636.756 170.706 640.393 170.17 644.054 170.099V189.024C641.09 188.489 638.203 185.478 636.001 180.575V180.572ZM645.945 159.948H657.99C657.952 163.252 657.661 166.549 657.119 169.809C653.478 168.803 649.723 168.263 645.946 168.202L645.945 159.948ZM645.945 158.055V149.798C649.722 149.737 653.477 149.197 657.119 148.191C657.659 151.451 657.948 154.748 657.984 158.052L645.945 158.055ZM645.945 147.904V128.98C648.903 129.515 651.794 132.526 653.996 137.429C655.167 140.038 656.095 143.042 656.767 146.308C653.241 147.295 649.605 147.832 645.945 147.904ZM644.054 147.904C640.393 147.832 636.755 147.295 633.229 146.307C633.899 143.04 634.835 140.038 636.001 137.429C638.203 132.526 641.095 129.517 644.054 128.979V147.904ZM644.054 149.798V158.055H632.003C632.038 154.75 632.327 151.453 632.867 148.192C636.513 149.199 640.272 149.739 644.054 149.798ZM644.054 159.948V168.203C640.276 168.264 636.52 168.804 632.877 169.81C632.337 166.55 632.048 163.253 632.013 159.948H644.054ZM645.945 170.099C649.605 170.17 653.242 170.706 656.767 171.695C656.098 174.96 655.162 177.964 653.994 180.572C651.792 185.475 648.903 188.484 645.945 189.022V170.099ZM655.72 181.349C656.924 178.666 657.886 175.591 658.58 172.256C662.427 173.551 665.867 175.39 668.6 177.677C664.149 183.298 657.845 187.15 650.816 188.542C652.646 186.907 654.311 184.482 655.717 181.349H655.72ZM668.6 140.324C665.864 142.612 662.425 144.45 658.581 145.745C657.886 142.408 656.925 139.335 655.721 136.653C654.313 133.519 652.65 131.096 650.818 129.459C657.848 130.85 664.152 134.702 668.602 140.324H668.6ZM631.416 172.257C632.112 175.595 633.072 178.666 634.277 181.349C635.683 184.481 637.347 186.906 639.178 188.541C632.152 187.149 625.85 183.297 621.403 177.677C624.136 175.39 627.578 173.551 631.416 172.257Z" fill="#1472EC" stroke="#1472EC" stroke-width="4" mask="url(#path-48-inside-1_1514_975)"/>
</g>
<defs>
<clipPath id="clip0_1514_975">
<rect width="64" height="64" fill="white" transform="translate(613 127)"/>
</clipPath>
</defs>
</svg>
